<?xml version="1.0" standalone="no"?>
<!DOCTYPE svg PUBLIC "-//W3C//DTD SVG 1.1//EN" "http://www.w3.org/Graphics/SVG/1.1/DTD/svg11.dtd" >
<svg xmlns="http://www.w3.org/2000/svg" xmlns:xlink="http://www.w3.org/1999/xlink" version="1.1">
<metadata>
Created by FontForge 20150318 at Mon Aug 17 06:58:17 2015
 By uniteet7
Eurotype
</metadata>
<defs>
<font id="avantibold_allfont_ru" horiz-adv-x="2179" >
  <font-face 
    font-family="avantibold_allfont_ru"
    font-weight="700"
    font-stretch="normal"
    units-per-em="4096"
    panose-1="2 11 -30 0 0 0 0 0 0 0"
    ascent="3276"
    descent="-820"
    x-height="2126"
    cap-height="2875"
    bbox="-135 -864 4284 3604"
    underline-thickness="85"
    underline-position="-46"
    unicode-range="U+0020-2022"
  />
<missing-glyph horiz-adv-x="3072" 
d="M512 0v2560h2048v-2560h-2048zM2494 66v2428h-1916v-2428h1916z" />
    <glyph glyph-name=".notdef" horiz-adv-x="3072" 
d="M512 0v2560h2048v-2560h-2048zM2494 66v2428h-1916v-2428h1916z" />
    <glyph glyph-name=".null" horiz-adv-x="0" 
 />
    <glyph glyph-name="nonmarkingreturn" horiz-adv-x="0" 
 />
    <glyph glyph-name="c32" unicode=" " horiz-adv-x="1090" 
 />
    <glyph glyph-name="c33" unicode="!" horiz-adv-x="1090" 
d="M279 733v2142h520v-2142h-520zM279 0v496h520v-496h-520z" />
    <glyph glyph-name="c34" unicode="&#x22;" horiz-adv-x="1823" 
d="M287 1995v880h512v-880h-512zM1024 1995v880h512v-880h-512z" />
    <glyph glyph-name="c35" unicode="#" horiz-adv-x="2335" 
d="M2101 1286v-381h-397l-123 -905h-426l123 905h-332l-127 -905h-418l119 905h-389v381h447l49 361h-385v381h430l119 851h413l-110 -851h336l110 851h430l-119 -851h353v-381h-402l-49 -361h348zM1376 1647h-332l-49 -361h332z" />
    <glyph glyph-name="c36" unicode="$" 
d="M233 971h508q13 -152 106 -244t234 -92q139 0 237.5 98.5t98.5 233.5q0 120 -77.5 209.5t-213.5 126.5l-53 16q-251 71 -413 179t-239 258.5t-77 348.5q0 173 70 330t188.5 259.5t257.5 123.5v508h488v-508q162 -73 249 -156q99 -92 164 -221q50 -104 70 -287h-483
q-61 234 -263 234q-104 0 -181 -78t-77 -184q0 -116 91 -205q65 -55 282 -127l25 -8q4 -2 14 -6t14 -6q165 -51 247 -89.5t159 -99.5q262 -224 262 -618q0 -189 -71.5 -350t-201 -272.5t-300.5 -156.5v-520h-488v520q-137 31 -229 82q-172 99 -287 277t-115 346v29z" />
    <glyph glyph-name="c37" unicode="%" horiz-adv-x="3346" 
d="M868 0l1188 2875h398l-1188 -2875h-398zM770 2929q194 0 357 -92.5t257.5 -252.5t94.5 -352q0 -191 -94 -353.5t-254.5 -256.5t-348.5 -94q-190 0 -351.5 94.5t-255 255t-93.5 350.5q0 189 93.5 350.5t252 256t342.5 94.5zM2535 1331q196 0 360 -92.5t258.5 -253.5
t94.5 -354q0 -145 -54 -272.5t-151.5 -225t-225 -150.5t-269.5 -53q-190 0 -351.5 94.5t-255.5 255.5t-94 351q0 185 94 347t253 257.5t341 95.5zM786 2499q-116 0 -195 -76.5t-79 -190.5q0 -109 79.5 -189.5t186.5 -80.5q111 0 188.5 79.5t77.5 190.5q0 110 -75 188.5
t-183 78.5zM2552 897q-121 0 -196 -70t-75 -184q0 -117 78 -200t189 -83q107 0 188.5 86.5t81.5 200.5q0 104 -78 177t-188 73z" />
    <glyph glyph-name="c38" unicode="&#x26;" horiz-adv-x="2646" 
d="M1995 1696h573l-495 -869l512 -553l-377 -327l-393 409q-146 -183 -259 -266q-214 -160 -483 -160q-253 0 -469 123t-342.5 334t-126.5 457q0 318 197 553q107 122 344 270q-147 162 -197 283q-45 125 -45 241q0 206 95.5 375.5t262.5 266t371 96.5q207 0 376 -93.5
t265.5 -258.5t96.5 -365q0 -279 -177 -488q-79 -94 -274 -208l266 -299zM1122 1872q162 76 226.5 147t64.5 176q0 106 -67 170t-179 64q-105 0 -171 -63.5t-66 -161.5q0 -76 40 -144t152 -188zM1450 750l-446 503q-186 -85 -267.5 -188.5t-81.5 -249.5q0 -107 49 -195
t138 -137t198 -49q130 0 222.5 71.5t187.5 244.5z" />
    <glyph glyph-name="c39" unicode="'" horiz-adv-x="1069" 
d="M287 1995v880h512v-880h-512z" />
    <glyph glyph-name="c40" unicode="(" horiz-adv-x="1479" 
d="M1356 45v-545q-60 16 -148 45q-167 63 -340 242q-137 134 -243.5 293.5t-182.5 341t-115.5 376t-39.5 386.5q0 556 299 1040q192 303 430 479q79 61 147 93.5t193 74.5v-540q-159 -138 -234.5 -229t-146.5 -234q-156 -317 -156 -680q0 -362 164 -692
q71 -143 144.5 -231.5t228.5 -219.5z" />
    <glyph glyph-name="c41" unicode=")" horiz-adv-x="1479" 
d="M143 2331v540q58 -17 181 -65q189 -96 368 -287q167 -177 282.5 -391.5t176.5 -455t61 -484.5q0 -583 -319 -1073q-185 -292 -442 -480q-113 -77 -308 -135v545q153 128 230 219t147 232q160 319 160 692q0 363 -156 680q-71 143 -148.5 236t-232.5 227z" />
    <glyph glyph-name="c42" unicode="*" horiz-adv-x="1712" 
d="M692 1774l-241 118l208 353l-389 -29v270l389 -24l-208 348l237 115l176 -349l180 353l222 -136l-213 -331l389 28v-274l-398 25l222 -328l-222 -139l-180 360z" />
    <glyph glyph-name="c43" unicode="+" horiz-adv-x="2335" 
d="M954 1475v741h451v-741h754v-451h-754v-770h-451v770h-757v451h757z" />
    <glyph glyph-name="c44" unicode="," horiz-adv-x="1090" 
d="M78 -537l201 1078h520l-205 -1078h-516z" />
    <glyph glyph-name="c45" unicode="-" horiz-adv-x="1634" 
d="M287 1008v458h1077v-458h-1077z" />
    <glyph glyph-name="c46" unicode="." horiz-adv-x="1090" 
d="M279 0v516h520v-516h-520z" />
    <glyph glyph-name="c47" unicode="/" horiz-adv-x="1790" 
d="M102 -500l1254 3375h368l-1257 -3375h-365z" />
    <glyph glyph-name="c48" unicode="0" 
d="M115 1917q0 441 225 696q125 148 324.5 232t416.5 84t394.5 -70.5t306 -205.5t195.5 -321.5t67 -414.5v-975q0 -440 -225 -696q-131 -149 -324 -232.5t-405 -83.5q-417 0 -709 279q-146 143 -206 313t-60 445v950zM1524 1929q0 145 -56 258t-156.5 175.5t-230.5 62.5
q-211 0 -328.5 -135t-117.5 -381v-930q0 -274 98 -393q132 -152 344 -152q214 0 348 160q99 120 99 377v958z" />
    <glyph glyph-name="c49" unicode="1" 
d="M958 0v2384h-364v491h881v-2875h-517z" />
    <glyph glyph-name="c50" unicode="2" 
d="M164 0v492l991 921q197 182 274.5 312t77.5 278q0 185 -117.5 303.5t-299.5 118.5q-134 0 -233 -61.5t-152.5 -178t-53.5 -268.5v-33h-520v103q0 257 126 474t341.5 342.5t470.5 125.5q262 0 481.5 -124.5t346 -341.5t126.5 -476q0 -166 -64.5 -345.5t-160.5 -281.5
l-364 -381l-545 -487h1134v-492h-1859z" />
    <glyph glyph-name="c51" unicode="3" 
d="M844 1376v492h37q409 0 409 295q0 118 -73 190t-193 72q-109 0 -171 -64t-67 -182h-520q12 216 111.5 388.5t268.5 267t378 94.5q211 0 391.5 -104t287.5 -283.5t107 -387.5q0 -222 -122 -385q-48 -59 -127 -118q131 -56 208 -127q246 -240 246 -639q0 -266 -130.5 -485
t-357.5 -344.5t-499 -125.5q-399 0 -676 271q-142 135 -213 303q-61 131 -82 348h521q21 -187 149 -302.5t317 -115.5q192 0 323.5 132.5t131.5 326.5q0 153 -70 262t-206.5 165t-329.5 56h-49z" />
    <glyph glyph-name="c52" unicode="4" 
d="M0 852l1323 2023h434v-1957h303v-492h-303v-426h-516v426h-1241v426zM1241 918v1081l-688 -1081h688z" />
    <glyph glyph-name="c53" unicode="5" 
d="M1745 2875v-491h-914l-90 -529q198 82 365 82q248 0 459 -134t334.5 -364t123.5 -497q0 -274 -134 -507t-360.5 -369t-492.5 -136q-397 0 -696 287q-139 139 -217 307q-59 134 -78 328h520q37 -199 155 -308.5t296 -109.5q138 0 249 65.5t174.5 180.5t63.5 258
q0 134 -65 247.5t-177.5 180.5t-244.5 68q-213 0 -377 -193l-463 127l270 1507h1299z" />
    <glyph glyph-name="c54" unicode="6" 
d="M1114 2875h610l-643 -974l144 8q12 4 32 4q214 0 402.5 -132t301 -352t112.5 -466q0 -286 -131.5 -523.5t-360.5 -373.5t-504 -136q-276 0 -504.5 136t-359.5 372t-131 520q0 338 209 664zM1081 1434q-135 0 -245.5 -64t-174 -176t-63.5 -252q0 -214 138 -361t341 -147
q201 0 340 143t139 349q0 134 -64.5 251.5t-174.5 187t-236 69.5z" />
    <glyph glyph-name="c55" unicode="7" 
d="M332 0l1073 2384h-1151v491h1692v-491l-1041 -2384h-573z" />
    <glyph glyph-name="c56" unicode="8" 
d="M545 1597q-141 145 -189 258q-45 119 -45 259q0 230 99 417.5t273.5 292.5t389.5 105q161 0 304.5 -60.5t249 -169t165 -255.5t59.5 -314q0 -163 -57 -295q-42 -103 -176 -238q147 -83 217 -163q201 -221 201 -557q0 -196 -73.5 -367.5t-208 -303t-310 -204t-371.5 -72.5
q-261 0 -480.5 126t-346.5 346t-127 479q0 356 233 589q72 72 193 127zM1090 2425q-129 0 -220.5 -87.5t-91.5 -211.5q0 -123 91 -211t216 -88q123 0 211 88t88 211q0 122 -87.5 210.5t-206.5 88.5zM1085 1319q-124 0 -226.5 -59.5t-161 -163t-58.5 -228.5q0 -182 127 -308
t311 -126q123 0 222.5 58t158 157t58.5 219q0 185 -127.5 318t-303.5 133z" />
    <glyph glyph-name="c57" unicode="9" 
d="M430 0l635 967h-98q-250 0 -451 120t-315.5 333.5t-114.5 480.5q0 287 129 523t355.5 370.5t498.5 134.5q280 0 509.5 -132.5t359.5 -366t130 -521.5q0 -200 -58.5 -367t-207.5 -391l-762 -1151h-610zM1073 2425q-128 0 -236 -65t-171.5 -179t-63.5 -248
q0 -212 136 -353.5t339 -141.5q130 0 239 66t172.5 181.5t63.5 251.5q0 201 -141 344.5t-338 143.5z" />
    <glyph glyph-name="c58" unicode=":" horiz-adv-x="1090" 
d="M279 0v516h520v-516h-520zM279 1438v516h520v-516h-520z" />
    <glyph glyph-name="c59" unicode=";" horiz-adv-x="1090" 
d="M279 1438v516h520v-516h-520zM78 -537l201 1078h520l-205 -1078h-516z" />
    <glyph glyph-name="c60" unicode="&#x3c;" horiz-adv-x="2335" 
d="M2171 594v-430l-1978 876v385l1978 881v-430l-1409 -651z" />
    <glyph glyph-name="c61" unicode="=" horiz-adv-x="2335" 
d="M2159 1839v-446h-1962v446h1962zM2159 1081v-446h-1962v446h1962z" />
    <glyph glyph-name="c62" unicode="&#x3e;" horiz-adv-x="2335" 
d="M188 594l1405 631l-1405 651v430l1979 -881v-385l-1979 -876v430z" />
    <glyph glyph-name="c63" unicode="?" 
d="M643 2032h-520q15 199 74 352q58 157 185 281.5t296 194t346 69.5q230 0 429.5 -121.5t317 -328t117.5 -447.5q0 -191 -88.5 -345t-304.5 -348q-104 -92 -138.5 -132.5t-70.5 -116.5q-37 -74 -37 -226v-131h-520v111q0 244 98 454q52 111 109.5 180t198.5 189
q110 87 163 156q70 95 70 225q0 166 -98.5 265.5t-265.5 99.5q-319 0 -361 -381zM729 0v496h520v-496h-520z" />
    <glyph glyph-name="c64" unicode="@" horiz-adv-x="3490" 
d="M2654 479h369q-162 -203 -270 -297t-275 -178q-295 -147 -643 -147q-426 0 -778 197.5t-553 540t-201 757.5q0 417 199.5 762.5t546.5 543t766 197.5q370 0 688.5 -164.5t503 -449.5t184.5 -619q0 -484 -307 -799q-144 -144 -343 -240t-354 -96q-104 0 -162.5 54
t-58.5 151q-188 -188 -414 -188q-280 0 -457 197.5t-177 506.5q0 250 107 458.5t294 330t410 121.5q160 0 294 -70q99 -49 189 -164l41 201h373l-197 -1155v-12l-4 -21q-4 -33 -4 -53q0 -25 17.5 -41.5t43.5 -16.5q107 0 207 105t161.5 276.5t61.5 356.5q0 232 -79 424
t-224 329.5t-349 212t-450 74.5q-348 0 -625 -155t-432 -431.5t-155 -621.5q0 -346 161 -622.5t447.5 -431.5t644.5 -155q211 0 385 70q120 46 198 95t220 167zM1393 1274q0 -158 84.5 -255t222.5 -97q167 0 284 127t117 307q0 150 -90 247t-229 97q-154 0 -271.5 -129.5
t-117.5 -296.5z" />
    <glyph glyph-name="c65" unicode="A" horiz-adv-x="2879" 
d="M29 0l1196 2875h417l1209 -2875h-586l-311 741h-1020l-320 -741h-585zM1073 1204h701l-336 897l-13 107l-12 -107z" />
    <glyph glyph-name="c66" unicode="B" horiz-adv-x="2257" 
d="M266 0v2875h520q282 0 431 -12q196 -22 335 -98q184 -91 295 -269t111 -378q0 -201 -95.5 -348.5t-260.5 -200.5q158 -27 277 -121.5t185 -243t66 -327.5q0 -204 -91 -384t-257 -300q-263 -193 -799 -193h-717zM799 516h221q577 0 577 385q0 119 -65 197q-54 59 -123 98
q-70 34 -144.5 45.5t-232.5 11.5h-233v-737zM799 1769h98q263 0 365 46q70 30 116.5 104.5t46.5 157.5q0 117 -77 188q-40 40 -103 66q-61 24 -123 24q-20 4 -229 4h-94v-590z" />
    <glyph glyph-name="c67" unicode="C" horiz-adv-x="3035" 
d="M2322 782h619q-79 -161 -135 -244t-148 -178q-141 -136 -311 -232.5t-359 -147t-382 -50.5q-399 0 -743.5 204t-546 551.5t-201.5 752.5q0 401 200.5 745t542.5 545t739 201q299 0 579.5 -116.5t489.5 -326.5q89 -85 148.5 -174t142.5 -256h-606q-95 102 -166 156.5
t-170 101.5q-208 99 -418 99q-253 0 -471.5 -134t-346.5 -359.5t-128 -489.5q0 -262 130.5 -488.5t350 -361t470.5 -134.5q182 0 356 74q107 47 181.5 100.5t182.5 161.5z" />
    <glyph glyph-name="c68" unicode="D" horiz-adv-x="2724" 
d="M266 0v2875h602q427 0 714.5 -80.5t490.5 -254.5q148 -122 261 -303t173.5 -388.5t60.5 -418.5q0 -314 -133.5 -610.5t-361.5 -487.5q-142 -124 -304 -196t-374 -104t-514 -32h-615zM799 516h65q319 0 500 43.5t324 153.5q164 123 256 312t92 400q0 234 -103 439
t-278 323q-140 96 -323 134t-496 38h-37v-1843z" />
    <glyph glyph-name="c69" unicode="E" horiz-adv-x="2023" 
d="M266 0v2875h1544v-516h-1011v-663h966v-516h-966v-664h1011v-516h-1544z" />
    <glyph glyph-name="c70" unicode="F" horiz-adv-x="1868" 
d="M266 0v2875h1463v-516h-930v-663h884v-516h-884v-1180h-533z" />
    <glyph glyph-name="c71" unicode="G" horiz-adv-x="3269" 
d="M3039 2032h-639q-92 114 -155 168t-164 106q-220 107 -439 107q-265 0 -493.5 -132.5t-363 -358t-134.5 -484.5q0 -260 139 -489t373 -366t500 -137q359 0 643 259q103 87 205 262h-1204v499h1876v-61q0 -401 -204.5 -740.5t-555.5 -537t-768 -197.5q-418 0 -771.5 199.5
t-560.5 544t-208 747.5q0 407 206.5 755t560 550.5t765.5 202.5q200 0 402 -54.5t381.5 -158t326.5 -250.5q152 -159 282 -434z" />
    <glyph glyph-name="c72" unicode="H" horiz-adv-x="2646" 
d="M266 0v2875h533v-1151h1024v1151h536v-2875h-536v1204h-1024v-1204h-533z" />
    <glyph glyph-name="c73" unicode="I" horiz-adv-x="1090" 
d="M266 0v2875h533v-2875h-533z" />
    <glyph glyph-name="c74" unicode="J" horiz-adv-x="1868" 
d="M1077 2875h533v-2027q0 -225 -28.5 -348t-111.5 -238q-106 -159 -272.5 -245.5t-366.5 -86.5q-350 0 -585 230q-91 89 -152 225q-47 110 -57 274h532q29 -105 86.5 -150.5t163.5 -45.5q258 0 258 352v2060z" />
    <glyph glyph-name="c75" unicode="K" horiz-adv-x="2413" 
d="M266 0v2875h533v-1245l893 1245h639l-1053 -1298l1053 -1577h-639l-893 1430v-1430h-533z" />
    <glyph glyph-name="c76" unicode="L" horiz-adv-x="1712" 
d="M266 0v2875h533v-2359h876v-516h-1409z" />
    <glyph glyph-name="c77" unicode="M" horiz-adv-x="3502" 
d="M266 0v2875h725l774 -2130l33 -172l33 172l713 2130h725v-2875h-533v2154l-745 -2154h-451l-741 2154v-2154h-533z" />
    <glyph glyph-name="c78" unicode="N" horiz-adv-x="2879" 
d="M266 0v2875h598l1172 -2052l24 -98v2150h537v-2875h-594l-1172 2040l-32 98v-2138h-533z" />
    <glyph glyph-name="c79" unicode="O" horiz-adv-x="3269" 
d="M1589 2929q420 0 770.5 -199.5t552 -545.5t201.5 -759q0 -405 -201 -749.5t-547.5 -545t-750.5 -200.5q-405 0 -750.5 200.5t-547 545t-201.5 749.5q0 402 200 749t539.5 551t734.5 204zM1634 2413q-272 0 -497.5 -128.5t-355.5 -352.5t-130 -494q0 -265 131 -494
t353.5 -363.5t478.5 -134.5q257 0 479.5 135t354.5 364.5t132 492.5q0 259 -129 483.5t-348 358t-469 133.5z" />
    <glyph glyph-name="c80" unicode="P" 
d="M799 0h-533v2875h676q281 0 418 -16q190 -20 360 -135q178 -120 279.5 -314t101.5 -415q0 -217 -92 -411.5t-252 -317.5q-84 -68 -205 -115q-173 -61 -651 -61h-102v-1090zM799 1606h94h57h49q215 0 308 32q119 37 190.5 133.5t71.5 219.5q0 125 -75.5 217.5
t-203.5 126.5q-103 24 -291 24h-45h-61h-94v-753z" />
    <glyph glyph-name="c81" unicode="Q" horiz-adv-x="3269" 
d="M3224 410v-480h-50q-179 0 -335 41q-108 32 -177 65t-188 111q-163 -96 -340 -147q-249 -70 -483 -70q-423 0 -776 200.5t-556.5 547t-203.5 760.5q0 413 200.5 755t550 539t768.5 197q421 0 774.5 -202t557.5 -552t204 -766q0 -262 -82 -491q-74 -202 -258 -431
q150 -77 308 -77h86zM2028 541q-236 167 -390 241q-290 136 -548 136q-136 0 -263 -46q108 -132 180 -194.5t177 -116.5q222 -115 487 -115q95 0 153.5 16t203.5 79zM2404 795q118 132 164 254q70 171 70 360q0 273 -132.5 503.5t-359.5 365.5t-495 135q-191 0 -371.5 -77
t-324.5 -211.5t-226 -304.5t-82 -345l4 -21l4 -156q210 54 406 54q234 0 422 -49t413 -168q212 -112 345 -209q65 -44 163 -131z" />
    <glyph glyph-name="c82" unicode="R" horiz-adv-x="2257" 
d="M266 0v2875h832q275 0 442.5 -44.5t302.5 -155.5q154 -126 245 -318t91 -387q0 -164 -66.5 -339.5t-170.5 -291.5q-87 -98 -205 -163q-123 -70 -307 -115l778 -1061h-656l-753 1102v-1102h-533zM799 1507h291q270 0 413.5 111t143.5 319q0 200 -156 324q-78 60 -157.5 79
t-239.5 19h-295v-852z" />
    <glyph glyph-name="c83" unicode="S" horiz-adv-x="2023" 
d="M53 811h557q11 -169 116.5 -267t277.5 -98q166 0 273 104.5t107 264.5q0 187 -131 299q-113 97 -368 180q-93 31 -115 37q-151 57 -238 111q-171 108 -271.5 289.5t-100.5 386.5q0 219 113 406.5t307 296t419 108.5q234 0 423.5 -103.5t301 -290.5t123.5 -421h-549
q-12 138 -99.5 218.5t-223.5 80.5q-126 0 -204.5 -83.5t-78.5 -215.5q0 -128 79.5 -207t281.5 -150l123 -41q289 -101 438 -221q303 -248 303 -643q0 -254 -123.5 -465.5t-338.5 -334t-468 -122.5q-407 0 -684 283q-125 125 -184 279q-56 122 -66 319z" />
    <glyph glyph-name="c84" unicode="T" horiz-adv-x="1634" 
d="M557 0v2359h-528v516h1597v-516h-536v-2359h-533z" />
    <glyph glyph-name="c85" unicode="U" horiz-adv-x="2490" 
d="M266 2875h533v-1794q0 -178 9 -246.5t44 -142.5q56 -114 158 -180t219 -66q108 0 209 56.5t155 148.5q48 77 63 163t15 267v1794h537v-1794q0 -286 -48 -459.5t-165 -318.5q-136 -169 -343.5 -271t-414.5 -102q-195 0 -396.5 95t-344.5 254q-128 149 -179 327t-51 475
v1794z" />
    <glyph glyph-name="c86" unicode="V" horiz-adv-x="2724" 
d="M1147 0l-1114 2875h557l774 -2187l774 2187h561l-1114 -2875h-438z" />
    <glyph glyph-name="c87" unicode="W" horiz-adv-x="3502" 
d="M864 0l-835 2875h544l500 -2011l496 2011h389l487 -2011l504 2011h545l-836 -2875h-426l-467 1905l-479 -1905h-422z" />
    <glyph glyph-name="c88" unicode="X" horiz-adv-x="2646" 
d="M20 0l992 1434l-992 1441h623l680 -987l684 987h623l-996 -1441l996 -1434h-623l-684 979l-680 -979h-623z" />
    <glyph glyph-name="c89" unicode="Y" horiz-adv-x="2413" 
d="M958 0v1061l-946 1814h586l627 -1323l626 1323h586l-946 -1814v-1061h-533z" />
    <glyph glyph-name="c90" unicode="Z" horiz-adv-x="1946" 
d="M70 455l1093 1904h-1032v516h1663v-483l-1085 -1876h1159v-516h-1798v455z" />
    <glyph glyph-name="c91" unicode="[" horiz-adv-x="1245" 
d="M1122 2875v-299h-315v-2732h315v-340h-835v3371h835z" />
    <glyph glyph-name="c92" unicode="\" horiz-adv-x="2490" 
d="M1552 0l-1224 2875h401l1229 -2875h-406z" />
    <glyph glyph-name="c93" unicode="]" horiz-adv-x="1245" 
d="M115 2875h835v-3371h-835v340h315v2732h-315v299z" />
    <glyph glyph-name="c94" unicode="^" horiz-adv-x="2671" 
d="M815 2048l-401 180l700 774h467l700 -774l-405 -180l-520 692z" />
    <glyph glyph-name="c95" unicode="_" horiz-adv-x="1946" 
d="M1946 -537h-1946v349h1946v-349z" />
    <glyph glyph-name="c96" unicode="`" horiz-adv-x="2048" 
d="M553 2871l221 398l864 -525l-204 -360z" />
    <glyph glyph-name="c97" unicode="a" horiz-adv-x="2535" 
d="M2359 2126v-2126h-467v287q-87 -103 -146 -151t-161 -99q-201 -107 -438 -107q-293 0 -528.5 147.5t-369.5 408t-134 583.5q0 312 140 570.5t382.5 407t533.5 148.5q235 0 410 -94q94 -47 157.5 -103t153.5 -171v299h467zM1876 1057q0 185 -77.5 331t-218 227t-318.5 81
q-181 0 -326.5 -83t-227 -229.5t-81.5 -330.5q0 -175 82 -318t226 -224t322 -81q177 0 318 81.5t221 225t80 320.5z" />
    <glyph glyph-name="c98" unicode="b" horiz-adv-x="2535" 
d="M209 0v2875h508v-970q116 136 233 192q189 98 430 98q290 0 536 -149.5t389.5 -409t143.5 -567.5q0 -319 -138 -579.5t-380.5 -410t-537.5 -149.5q-246 0 -439 103q-84 44 -140.5 96t-137.5 158v-287h-467zM1327 1696q-186 -4 -331.5 -84t-226.5 -219.5t-81 -311.5
q0 -183 82.5 -332t230 -234t326.5 -85q175 0 314.5 80.5t217.5 225t78 325.5q0 176 -78 321t-216 229.5t-304 84.5h-12z" />
    <glyph glyph-name="c99" unicode="c" horiz-adv-x="2458" 
d="M1733 692h573q-54 -143 -95.5 -218.5t-113.5 -158.5q-164 -185 -384.5 -285t-459.5 -100q-309 0 -571 152.5t-414.5 415.5t-152.5 571q0 307 151 566.5t411 409.5t564 150q164 0 320.5 -47t295.5 -135.5t248 -214.5q72 -83 114 -162t87 -215h-573q-93 147 -206.5 211
t-281.5 64q-181 0 -321 -79.5t-218.5 -222.5t-78.5 -325q0 -275 178.5 -457t447.5 -182q301 0 480 262z" />
    <glyph glyph-name="c100" unicode="d" horiz-adv-x="2535" 
d="M2355 2875v-2875h-471v287q-77 -101 -134 -151.5t-148 -98.5q-202 -107 -435 -107q-283 0 -525 152.5t-384.5 412.5t-142.5 566q0 307 144.5 568t392 413.5t536.5 152.5q193 0 381 -81q136 -62 274 -205v966h512zM1876 1057q0 134 -48.5 250t-134 203t-202 136.5
t-246.5 49.5q-163 0 -306.5 -85.5t-227.5 -230t-84 -311.5q0 -174 82.5 -320.5t226.5 -232.5t313 -86q165 0 310.5 85.5t231 231t85.5 310.5z" />
    <glyph glyph-name="c101" unicode="e" horiz-adv-x="2458" 
d="M2306 836h-1651q53 -138 119 -209q173 -197 451 -197q159 0 295 62q91 42 172 122h565q-83 -200 -189 -311q-164 -176 -385.5 -274.5t-453.5 -98.5q-300 0 -557 151t-407 410t-150 562q0 309 151 572t409 416.5t562 153.5q293 0 545.5 -150.5t402.5 -405.5t150 -549
q0 -58 -21 -205zM647 1290h1172q-50 136 -123 209q-178 197 -455 197q-291 0 -483 -217q-69 -76 -111 -189z" />
    <glyph glyph-name="c102" unicode="f" horiz-adv-x="1073" 
d="M217 0v1675h-180v451h180q20 217 78 348q56 127 147 221t207 145.5t240 51.5h24l140 -8v-508q-134 0 -197 -18.5t-89.5 -70t-37.5 -161.5h295v-451h-295v-1675h-512z" />
    <glyph glyph-name="c103" unicode="g" horiz-adv-x="2535" 
d="M1876 2126h471v-1802q0 -272 -71.5 -467t-227.5 -357q-167 -173 -390.5 -268.5t-457.5 -95.5q-233 0 -452.5 93.5t-387.5 262.5q-113 118 -213 348h578q110 -104 213 -147q141 -58 270 -58q128 0 254.5 46.5t216.5 130.5q105 98 148 225q31 94 53 258
q-100 -119 -174 -180t-174 -111q-168 -74 -328 -74q-294 0 -545.5 155t-397.5 421.5t-146 578.5q0 300 146 556.5t397.5 405t545.5 148.5q317 0 529 -180q70 -59 143 -180v291zM1868 1049q0 182 -83.5 330t-229 232.5t-318.5 84.5q-169 0 -309 -82t-220.5 -223.5
t-80.5 -313.5q0 -181 82 -329.5t227 -233t321 -84.5q161 0 302 84.5t225 227.5t84 307z" />
    <glyph glyph-name="c104" unicode="h" horiz-adv-x="2302" 
d="M209 0v2875h508v-909q82 98 180 143q165 86 365 86q177 0 345.5 -75.5t280.5 -206.5q117 -135 161 -296.5t44 -465.5v-1151h-512v1040q0 238 -43 381.5t-135.5 209t-247.5 65.5q-243 0 -356 -185q-46 -73 -64 -174.5t-18 -304.5v-1032h-508z" />
    <glyph glyph-name="c105" unicode="i" horiz-adv-x="922" 
d="M209 0v2126h508v-2126h-508zM209 2372v467h508v-467h-508z" />
    <glyph glyph-name="c106" unicode="j" horiz-adv-x="999" 
d="M274 2126h512v-1995q0 -397 -186.5 -613.5t-533.5 -230.5v496q109 11 155 57q34 37 43.5 94.5t9.5 212.5v1979zM274 2372v467h512v-467h-512z" />
    <glyph glyph-name="c107" unicode="k" horiz-adv-x="2228" 
d="M209 0v2875h508v-1749l684 1000h602l-766 -1041l893 -1085h-684l-729 995v-995h-508z" />
    <glyph glyph-name="c108" unicode="l" horiz-adv-x="922" 
d="M209 0v2875h508v-2875h-508z" />
    <glyph glyph-name="c109" unicode="m" horiz-adv-x="3609" 
d="M209 0v2126h467v-193q159 262 557 262q381 0 598 -299l12 -16l12 -12q68 101 173.5 174.5t238 113t273.5 39.5q402 0 638 -262q125 -140 173.5 -300t48.5 -437v-1196h-512v1135q0 293 -78 405q-46 73 -132.5 114.5t-187.5 41.5q-233 0 -352 -185q-46 -79 -62 -178
t-16 -321v-1012h-512v1135q0 270 -82 389q-114 172 -344 172q-167 0 -266 -99q-77 -74 -108 -205t-31 -380v-1012h-508z" />
    <glyph glyph-name="c110" unicode="n" horiz-adv-x="2302" 
d="M209 0v2126h471v-193q106 122 221 181q170 81 361 81q376 0 639 -294q25 -27 28 -29q96 -132 132 -298.5t36 -471.5v-1102h-512v1004q0 379 -86 516q-50 78 -144 127t-196 49q-109 0 -206.5 -51.5t-149.5 -137.5q-49 -76 -67.5 -190t-18.5 -354v-963h-508z" />
    <glyph glyph-name="c111" unicode="o" horiz-adv-x="2482" 
d="M1241 2195q313 0 574 -150t411 -411t150 -573q0 -307 -151.5 -567.5t-412 -412t-567.5 -151.5q-305 0 -565 152.5t-412.5 414t-152.5 568.5q0 304 152.5 563.5t412.5 413t561 153.5zM1241 1696q-171 -6 -312 -91.5t-221.5 -227.5t-80.5 -312q0 -269 179 -452t439 -183
q173 0 316 82t225 226.5t82 318.5q0 171 -84 318t-224.5 234t-302.5 87h-16z" />
    <glyph glyph-name="c112" unicode="p" horiz-adv-x="2535" 
d="M209 -713v2839h467v-275q81 105 139 156.5t143 93.5q175 94 414 94q221 0 415.5 -85.5t340 -240.5t225.5 -360t80 -440q0 -315 -141.5 -576.5t-387 -412t-540.5 -150.5q-207 0 -369 74q-130 60 -278 225v-942h-508zM1323 1696q-179 0 -324.5 -82.5t-228 -229
t-82.5 -327.5q0 -173 80.5 -317t220 -227t309.5 -83q173 0 317.5 84.5t227 230t82.5 320.5q0 169 -82 314.5t-221 231t-299 85.5z" />
    <glyph glyph-name="c113" unicode="q" horiz-adv-x="2535" 
d="M1876 2126h471v-2839h-512v942q-132 -151 -279 -221q-175 -78 -368 -78q-293 0 -539 153.5t-390 417t-144 572.5q0 299 146 557.5t394 411.5t533 153q304 0 524 -163q81 -61 164 -181v275zM1266 1696q-184 0 -330 -81t-227.5 -224.5t-81.5 -325.5q0 -180 80 -325
t223 -227.5t319 -82.5q167 0 308.5 84t224 229t82.5 318q0 166 -83 313.5t-222 234.5t-293 87z" />
    <glyph glyph-name="c114" unicode="r" horiz-adv-x="1229" 
d="M209 0v2126h463v-193q101 147 203 204.5t260 57.5h41v-495q-155 -6 -258 -66q-100 -50 -160 -164q-41 -91 -41 -323v-1147h-508z" />
    <glyph glyph-name="c115" unicode="s" horiz-adv-x="1688" 
d="M1556 1544h-499q-33 152 -201 152q-90 0 -143.5 -48.5t-53.5 -127.5q0 -73 56 -118t198 -83l25 -8h8q357 -98 512.5 -247.5t155.5 -395.5q0 -202 -103.5 -372t-283 -268t-391.5 -98q-152 0 -292.5 54.5t-248.5 154.5q-92 92 -156 226q-50 109 -65 303h520
q61 -238 270 -238q105 0 171.5 55.5t66.5 145.5t-70 147.5t-250 118.5q-5 0 -12 2t-8 2l-21 8l-90 29q-241 76 -372.5 231t-131.5 367q0 180 94.5 332t258.5 239.5t356 87.5q193 0 347.5 -82t247.5 -230.5t105 -338.5z" />
    <glyph glyph-name="c116" unicode="t" horiz-adv-x="1151" 
d="M283 0v1675h-250v451h250v713h512v-713h307v-451h-307v-1675h-512z" />
    <glyph glyph-name="c117" unicode="u" horiz-adv-x="2302" 
d="M1589 2126h512v-2126h-471v225q-57 -96 -123 -151q-169 -144 -426 -144q-407 0 -671 295q-119 135 -160 277.5t-41 423.5v1200h508v-1045q0 -298 65 -434q109 -217 373 -217q221 0 327.5 160t106.5 491v1045z" />
    <glyph glyph-name="c118" unicode="v" horiz-adv-x="2150" 
d="M864 0l-860 2126h569l492 -1397l491 1397h566l-860 -2126h-398z" />
    <glyph glyph-name="c119" unicode="w" horiz-adv-x="3072" 
d="M807 0l-770 2126h541l397 -1299l348 1299h406l352 -1299l393 1299h541l-770 -2126h-316l-405 1380l-402 -1380h-315z" />
    <glyph glyph-name="c120" unicode="x" horiz-adv-x="2150" 
d="M4 0l758 1098l-664 1028h594l373 -582l360 582h594l-655 -1028l758 -1098h-627l-430 688l-430 -688h-631z" />
    <glyph glyph-name="c121" unicode="y" horiz-adv-x="2228" 
d="M410 -713l393 914l-778 1925h577l488 -1360l512 1360h577l-1221 -2839h-548z" />
    <glyph glyph-name="c122" unicode="z" horiz-adv-x="1765" 
d="M78 0v455l942 1220h-836v451h1446v-451l-942 -1220h1008v-455h-1618z" />
    <glyph glyph-name="c123" unicode="{" horiz-adv-x="1540" 
d="M1319 2839v-312h-62q-141 0 -191 -53.5t-50 -204.5v-651q0 -269 -71 -404.5t-249 -205.5q167 -77 243.5 -223.5t76.5 -391.5v-651q0 -103 21 -157.5t72 -77.5t148 -23h62v-307h-180q-197 0 -301.5 11.5t-165 45.5t-111.5 102q-90 134 -90 353v647q0 271 -65.5 385.5
t-237.5 150.5v267q171 37 237 152t66 384v652q0 223 90 348q52 71 110.5 104.5t163 46.5t304.5 13h180z" />
    <glyph glyph-name="c124" unicode="|" horiz-adv-x="2335" 
d="M946 0v2875h463v-2875h-463z" />
    <glyph glyph-name="c125" unicode="}" horiz-adv-x="1540" 
d="M168 2839h180q200 0 303.5 -12t162.5 -46t112 -106q90 -133 90 -348v-652q0 -266 65.5 -382t237.5 -154v-267q-116 -24 -181.5 -81.5t-93.5 -165t-28 -289.5v-647q0 -227 -90 -353q-51 -69 -111 -102.5t-165.5 -45t-301.5 -11.5h-180v307h61q142 0 192 53.5t50 204.5v651
q0 242 76.5 390t243.5 225q-178 70 -249 206.5t-71 403.5v651q0 151 -50 204.5t-192 53.5h-61v312z" />
    <glyph glyph-name="c126" unicode="~" horiz-adv-x="2335" 
d="M1905 2933l249 -283q-103 -166 -150.5 -227t-123.5 -125q-115 -103 -287 -103q-89 0 -198 34.5t-326 129.5q-204 90 -295 90q-82 0 -156 -61q-59 -49 -143 -205q-6 -9 -14 -21.5t-19 -27.5l-249 287q140 241 262 352q137 131 319 131q168 0 496 -151q236 -107 323 -107
q78 0 137 49.5t138 179.5q23 38 37 58z" />
    <glyph glyph-name="c160" unicode="&#xa0;" horiz-adv-x="1024" 
 />
    <glyph glyph-name="c162" unicode="&#xa2;" horiz-adv-x="2150" 
d="M1315 152h-479v417q-177 49 -266 103.5t-185 171.5q-112 133 -172.5 295t-60.5 327q0 210 96 406t264 328q124 96 324 151v385h479v-385q181 -54 295 -135q147 -103 237 -242q68 -100 115 -278h-537q-122 180 -360 180q-114 0 -208 -56.5t-148 -154t-54 -215.5
q0 -178 120.5 -296t301.5 -118q93 0 163 33.5t161 118.5h561q-74 -176 -131.5 -263t-159.5 -175q-78 -69 -149 -105t-207 -76v-417z" />
    <glyph glyph-name="c163" unicode="&#xa3;" horiz-adv-x="2449" 
d="M287 0v492h540q70 126 70 270q0 125 -47.5 221t-169.5 221h-549v488h217q-61 155 -61 307q0 249 127 463t343.5 340.5t463.5 126.5q224 0 429.5 -114.5t336.5 -304.5t143 -405h-520q-33 144 -141 232t-252 88q-175 0 -294.5 -129.5t-119.5 -317.5q0 -153 106 -286h807
v-488h-418q58 -109 86 -213q29 -108 29 -250q0 -134 -37 -249l37 -5q4 0 13 -2t12 -2q150 0 257 113.5t107 271.5q0 62 -28 172l-5 21h512q37 -73 37 -201q0 -184 -82 -359t-225 -296q-128 -110 -283.5 -157.5t-388.5 -47.5h-1052z" />
    <glyph glyph-name="c164" unicode="&#xa4;" 
d="M106 885l168 168q-92 181 -114 274q-29 97 -29 225q0 146 37 267q30 105 106 241l-168 168l308 312l168 -168q141 76 258 110q127 37 250 37q118 0 266 -41q116 -30 250 -106l172 168l299 -312l-172 -168q86 -146 114 -245q37 -121 37 -259q0 -140 -45 -286
q-29 -98 -106 -217l172 -168l-299 -307l-172 167q-150 -84 -275 -118q-123 -33 -229 -33q-131 0 -279 41q-120 41 -241 110l-168 -167zM1085 1077q135 0 246.5 64t176.5 174.5t65 240.5q0 129 -65 239.5t-175.5 175.5t-238.5 65q-129 0 -239.5 -65t-175.5 -175t-65 -240
q0 -194 140 -336.5t331 -142.5z" />
    <glyph glyph-name="c165" unicode="&#xa5;" 
d="M811 0v725h-745v340h745l-221 414h-553v344h373l-545 1052h581l627 -1327l627 1327h590l-545 -1052h369v-344h-549l-222 -414h738v-340h-738v-725h-532z" />
    <glyph glyph-name="c166" unicode="&#xa6;" horiz-adv-x="3891" 
d="M0 1008v458h3891v-458h-3891z" />
    <glyph glyph-name="c167" unicode="&#xa7;" 
d="M1942 2257h-488q-30 258 -344 258q-266 0 -266 -188q0 -80 66.5 -149.5t215.5 -145.5l557 -283q189 -91 275 -221q98 -145 98 -340q0 -143 -69 -287q-76 -139 -230 -258q105 -110 144 -209q49 -113 49 -262q0 -209 -107 -373t-298 -256t-431 -92q-401 0 -651 250
q-113 113 -172 254q-56 129 -66 315h512v-45q0 -132 105.5 -215.5t271.5 -83.5q154 0 251 67t97 171q0 88 -61 155q-55 61 -201 132q-15 9 -53 28l-565 295q-225 118 -325.5 266.5t-100.5 360.5q0 237 131 409q59 75 184 168q-115 175 -115 361q0 191 98.5 339.5t277 230
t411.5 81.5q352 0 565 -201q93 -87 156 -213q51 -111 78 -319zM770 1688q-164 -121 -164 -254q0 -118 209 -226l66 -32l549 -283q159 101 159 250q0 68 -49 123q-40 44 -221 139z" />
    <glyph glyph-name="c168" unicode="&#xa8;" horiz-adv-x="2023" 
d="M266 0v2875h1544v-516h-1011v-663h966v-516h-966v-664h1011v-516h-1544zM344 3060v516h520v-516h-520zM1163 3060v516h516v-516h-516z" />
    <glyph glyph-name="c169" unicode="&#xa9;" horiz-adv-x="3637" 
d="M1835 -70q-423 0 -773 198t-552.5 543t-202.5 759q0 406 201 751.5t546.5 546.5t751.5 201q405 0 750.5 -200.5t547 -545t201.5 -749.5q0 -400 -200.5 -747.5t-540 -552t-729.5 -204.5zM1786 209q338 0 624.5 163t451.5 444.5t165 613.5q0 327 -164.5 609t-446.5 446.5
t-610 164.5q-331 0 -612 -163.5t-444.5 -443t-163.5 -609.5q0 -247 94.5 -469t263 -394t386.5 -267t456 -95zM2232 1159h340q-29 -178 -124 -309.5t-243.5 -199.5t-340.5 -68q-235 0 -424 110.5t-294.5 309.5t-105.5 448t103 444.5t289.5 303.5t427.5 108q582 0 712 -565
h-340q-69 295 -377 295q-138 0 -246 -73t-168.5 -205.5t-60.5 -299.5q0 -257 141.5 -431.5t346.5 -174.5q147 0 246.5 83t117.5 224z" />
    <glyph glyph-name="c170" unicode="&#xaa;" horiz-adv-x="2646" 
d="M799 0h-533v2875h533v-2101l37 98l1122 2003h532v-2875h-532v2093l-37 -86zM725 3265l193 339l864 -524l-176 -299z" />
    <glyph glyph-name="c171" unicode="&#xab;" horiz-adv-x="1790" 
d="M1507 528l-540 512v394l540 503v-479l-258 -221l258 -229v-480zM680 528l-541 512v394l541 503v-479l-262 -221l262 -229v-480z" />
    <glyph glyph-name="c172" unicode="&#xac;" horiz-adv-x="2335" 
d="M1700 709v671h-1503v459h1962v-1130h-459z" />
    <glyph glyph-name="c173" unicode="&#xad;" horiz-adv-x="1946" 
d="M0 1008v458h1946v-458h-1946z" />
    <glyph glyph-name="c174" unicode="&#xae;" horiz-adv-x="3637" 
d="M1835 -70q-423 0 -773 198t-552.5 543t-202.5 759q0 406 201 751.5t546.5 546.5t751.5 201q405 0 750.5 -200.5t547 -545t201.5 -749.5q0 -400 -200.5 -747.5t-540 -552t-729.5 -204.5zM1786 209q342 0 626.5 161.5t449.5 442.5t165 617q0 329 -164.5 611t-445.5 445.5
t-611 163.5q-331 0 -612 -163.5t-444.5 -443t-163.5 -609.5q0 -247 94.5 -469t263 -394t386.5 -267t456 -95zM2159 1298l393 -684h-402l-360 684h-254v-684h-348v1618h782q321 0 443 -78q188 -112 188 -417q0 -214 -101 -314t-341 -125zM1536 1540h381q159 0 229 54t70 180
t-84 175.5t-301 49.5h-295v-459z" />
    <glyph glyph-name="c176" unicode="&#xb0;" horiz-adv-x="1556" 
d="M1360 2302q0 -163 -77 -299.5t-210.5 -215.5t-294.5 -79q-158 0 -293 78.5t-213.5 214t-78.5 293.5q0 157 79 291.5t212.5 212t293.5 77.5q154 0 287.5 -78.5t214 -212t80.5 -282.5zM1126 2286q0 96 -47 178.5t-128.5 130t-176.5 47.5t-174.5 -47t-126.5 -126.5
t-47 -174.5q0 -147 102.5 -249.5t249.5 -102.5q142 0 245 103t103 241z" />
    <glyph glyph-name="c177" unicode="&#xb1;" horiz-adv-x="2335" 
d="M954 1683v533h451v-533h754v-450h-754v-557h-451v557h-757v450h757zM197 0v451h1962v-451h-1962z" />
    <glyph glyph-name="c178" unicode="&#xb2;" horiz-adv-x="3629" 
d="M2994 954v-462l-2437 1007v418l2437 1008v-459l-1847 -762zM557 291h2437v-414h-2437v414z" />
    <glyph glyph-name="c179" unicode="&#xb3;" horiz-adv-x="3629" 
d="M2994 1917v-418l-2437 -1007v462l1839 750l-1839 762v459zM557 291h2437v-414h-2437v414z" />
    <glyph glyph-name="c180" unicode="&#xb4;" horiz-adv-x="1634" 
d="M483 2384l-196 360l876 516l205 -405z" />
    <glyph glyph-name="c182" unicode="&#xb6;" horiz-adv-x="2335" 
d="M1331 2458v-2958h-389v1782q-231 7 -413 111t-284 285t-102 407q0 360 275 598q129 111 265 149.5t398 38.5h971v-3371h-401v2958h-320z" />
    <glyph glyph-name="c183" unicode="&#xb7;" horiz-adv-x="1868" 
d="M1733 1843h-516l-205 1073h516zM930 1843h-520l-201 1073h516z" />
    <glyph glyph-name="c184" unicode="&#xb8;" horiz-adv-x="2458" 
d="M2306 836h-1651q53 -138 119 -209q173 -197 451 -197q159 0 295 62q91 42 172 122h565q-83 -200 -189 -311q-164 -176 -385.5 -274.5t-453.5 -98.5q-300 0 -557 151t-407 410t-150 562q0 309 151 572t409 416.5t562 153.5q293 0 545.5 -150.5t402.5 -405.5t150 -549
q0 -58 -21 -205zM647 1290h1172q-50 136 -123 209q-178 197 -455 197q-291 0 -483 -217q-69 -76 -111 -189zM541 2413v516h520v-516h-520zM1360 2413v516h516v-516h-516z" />
    <glyph glyph-name="c185" unicode="&#xb9;" horiz-adv-x="4387" 
d="M266 0v2875h598l1221 -2052l29 -98v2150h483v-2875h-594l-1225 2040l-33 98v-2138h-479zM3576 2277q193 0 356.5 -92.5t257.5 -253.5t94 -354q0 -190 -94.5 -351.5t-255 -255t-350.5 -93.5t-349.5 93.5t-253 254t-93.5 352.5q0 187 93 348t252 256.5t343 95.5zM3068 164
v401h1077v-401h-1077zM3592 1843q-117 0 -195.5 -76t-78.5 -190q0 -107 80 -188.5t186 -81.5q107 0 186.5 80.5t79.5 189.5q0 111 -75 188.5t-183 77.5z" />
    <glyph glyph-name="c186" unicode="&#xba;" horiz-adv-x="2347" 
d="M1630 2126h512v-2126h-512v1454l-913 -1454h-508v2126h508v-1450zM410 2736l188 340l864 -524l-176 -303z" />
    <glyph glyph-name="c187" unicode="&#xbb;" horiz-adv-x="1790" 
d="M283 528v480l266 229l-266 221v479l540 -503v-394zM1114 528v480l262 229l-262 221v479l541 -503v-394z" />
    <glyph glyph-name="c191" unicode="&#xbf;" horiz-adv-x="2101" 
d="M287 2949h565l213 -250l213 250h561l-565 -536h-410z" />
    <glyph glyph-name="c192" unicode="&#xc0;" horiz-adv-x="2879" 
d="M29 0l1196 2875h417l1209 -2875h-586l-311 741h-1020l-320 -741h-585zM1073 1204h701l-336 897l-13 107l-12 -107z" />
    <glyph glyph-name="c192" unicode="&#x410;" horiz-adv-x="2879" 
d="M29 0l1196 2875h417l1209 -2875h-586l-311 741h-1020l-320 -741h-585zM1073 1204h701l-336 897l-13 107l-12 -107z" />
    <glyph glyph-name="c193" unicode="&#xc1;" horiz-adv-x="2257" 
d="M799 2359v-610h184q541 0 799 -188q166 -120 257 -300.5t91 -383.5q0 -207 -91 -387t-257 -297q-263 -193 -799 -193h-717v2875h1540v-516h-1007zM799 516h221q115 0 197 8q122 6 245 86q135 95 135 287q0 160 -106 250q-80 67 -184 90q-62 16 -275 16h-233v-737z" />
    <glyph glyph-name="c193" unicode="&#x411;" horiz-adv-x="2257" 
d="M799 2359v-610h184q541 0 799 -188q166 -120 257 -300.5t91 -383.5q0 -207 -91 -387t-257 -297q-263 -193 -799 -193h-717v2875h1540v-516h-1007zM799 516h221q115 0 197 8q122 6 245 86q135 95 135 287q0 160 -106 250q-80 67 -184 90q-62 16 -275 16h-233v-737z" />
    <glyph glyph-name="c194" unicode="&#xc2;" horiz-adv-x="2257" 
d="M266 0v2875h520q282 0 431 -12q196 -22 335 -98q184 -91 295 -269t111 -378q0 -201 -95.5 -348.5t-260.5 -200.5q158 -27 277 -121.5t185 -243t66 -327.5q0 -204 -91 -384t-257 -300q-263 -193 -799 -193h-717zM799 516h221q577 0 577 385q0 119 -65 197q-54 59 -123 98
q-70 34 -144.5 45.5t-232.5 11.5h-233v-737zM799 1769h98q263 0 365 46q70 30 116.5 104.5t46.5 157.5q0 117 -77 188q-40 40 -103 66q-61 24 -123 24q-20 4 -229 4h-94v-590z" />
    <glyph glyph-name="c194" unicode="&#x412;" horiz-adv-x="2257" 
d="M266 0v2875h520q282 0 431 -12q196 -22 335 -98q184 -91 295 -269t111 -378q0 -201 -95.5 -348.5t-260.5 -200.5q158 -27 277 -121.5t185 -243t66 -327.5q0 -204 -91 -384t-257 -300q-263 -193 -799 -193h-717zM799 516h221q577 0 577 385q0 119 -65 197q-54 59 -123 98
q-70 34 -144.5 45.5t-232.5 11.5h-233v-737zM799 1769h98q263 0 365 46q70 30 116.5 104.5t46.5 157.5q0 117 -77 188q-40 40 -103 66q-61 24 -123 24q-20 4 -229 4h-94v-590z" />
    <glyph glyph-name="c195" unicode="&#xc3;" horiz-adv-x="1868" 
d="M266 0v2875h1463v-516h-930v-2359h-533z" />
    <glyph glyph-name="c195" unicode="&#x413;" horiz-adv-x="1868" 
d="M266 0v2875h1463v-516h-930v-2359h-533z" />
    <glyph glyph-name="c196" unicode="&#xc4;" horiz-adv-x="3019" 
d="M2441 0h-1863v-598h-504v1114h307l922 2359h413l922 -2359h307v-1114h-504v598zM942 516h1135l-566 1606z" />
    <glyph glyph-name="c196" unicode="&#x414;" horiz-adv-x="3019" 
d="M2441 0h-1863v-598h-504v1114h307l922 2359h413l922 -2359h307v-1114h-504v598zM942 516h1135l-566 1606z" />
    <glyph glyph-name="c197" unicode="&#xc5;" horiz-adv-x="2023" 
d="M266 0v2875h1544v-516h-1011v-663h966v-516h-966v-664h1011v-516h-1544z" />
    <glyph glyph-name="c197" unicode="&#x415;" horiz-adv-x="2023" 
d="M266 0v2875h1544v-516h-1011v-663h966v-516h-966v-664h1011v-516h-1544z" />
    <glyph glyph-name="c198" unicode="&#xc6;" horiz-adv-x="3658" 
d="M1589 1462l-868 -1462h-639l1008 1638l-906 1237h639l766 -1265v1265h479v-1265l766 1265h639l-905 -1237l1008 -1638h-635l-873 1462v-1462h-479v1462z" />
    <glyph glyph-name="c198" unicode="&#x416;" horiz-adv-x="3658" 
d="M1589 1462l-868 -1462h-639l1008 1638l-906 1237h639l766 -1265v1265h479v-1265l766 1265h639l-905 -1237l1008 -1638h-635l-873 1462v-1462h-479v1462z" />
    <glyph glyph-name="c199" unicode="&#xc7;" horiz-adv-x="2191" 
d="M885 1761q16 0 37 -2t24 -2q176 0 289 91t113 229q0 126 -92 202t-240 76q-272 0 -307 -278h-553q6 203 43.5 329.5t124.5 235.5q109 139 287 215t393 76q201 0 364.5 -55.5t277.5 -158t176 -248t62 -325.5q0 -268 -155 -430q-48 -49 -89 -75t-145 -72
q182 -40 310.5 -137t193.5 -245t65 -339q0 -258 -125.5 -469t-345.5 -330t-491 -119q-290 0 -518.5 122.5t-355 342t-126.5 498.5v33h586q3 -203 116 -325t294 -122q117 0 211.5 52.5t148 144.5t53.5 205q0 185 -133.5 283t-390.5 98q-22 0 -47 -3.5t-55 -5.5v508z" />
    <glyph glyph-name="c199" unicode="&#x417;" horiz-adv-x="2191" 
d="M885 1761q16 0 37 -2t24 -2q176 0 289 91t113 229q0 126 -92 202t-240 76q-272 0 -307 -278h-553q6 203 43.5 329.5t124.5 235.5q109 139 287 215t393 76q201 0 364.5 -55.5t277.5 -158t176 -248t62 -325.5q0 -268 -155 -430q-48 -49 -89 -75t-145 -72
q182 -40 310.5 -137t193.5 -245t65 -339q0 -258 -125.5 -469t-345.5 -330t-491 -119q-290 0 -518.5 122.5t-355 342t-126.5 498.5v33h586q3 -203 116 -325t294 -122q117 0 211.5 52.5t148 144.5t53.5 205q0 185 -133.5 283t-390.5 98q-22 0 -47 -3.5t-55 -5.5v508z" />
    <glyph glyph-name="c200" unicode="&#xc8;" horiz-adv-x="2646" 
d="M799 0h-533v2875h533v-2101l37 98l1122 2003h532v-2875h-532v2093l-37 -86z" />
    <glyph glyph-name="c200" unicode="&#x418;" horiz-adv-x="2646" 
d="M799 0h-533v2875h533v-2101l37 98l1122 2003h532v-2875h-532v2093l-37 -86z" />
    <glyph glyph-name="c201" unicode="&#xc9;" horiz-adv-x="2646" 
d="M799 0h-533v2875h533v-2101l37 98l1122 2003h532v-2875h-532v2093l-37 -86zM737 3400h385q69 -189 254 -189t258 189h385q-84 -529 -643 -529q-553 0 -639 529z" />
    <glyph glyph-name="c201" unicode="&#x419;" horiz-adv-x="2646" 
d="M799 0h-533v2875h533v-2101l37 98l1122 2003h532v-2875h-532v2093l-37 -86zM737 3400h385q69 -189 254 -189t258 189h385q-84 -529 -643 -529q-553 0 -639 529z" />
    <glyph glyph-name="c202" unicode="&#xca;" horiz-adv-x="2413" 
d="M266 0v2875h533v-1245l893 1245h639l-1053 -1298l1053 -1577h-639l-893 1430v-1430h-533z" />
    <glyph glyph-name="c202" unicode="&#x41a;" horiz-adv-x="2413" 
d="M266 0v2875h533v-1245l893 1245h639l-1053 -1298l1053 -1577h-639l-893 1430v-1430h-533z" />
    <glyph glyph-name="c203" unicode="&#xcb;" horiz-adv-x="2617" 
d="M1278 2032l-12 102l-13 -102l-639 -2032h-589l1069 2875h417l1082 -2875h-631z" />
    <glyph glyph-name="c203" unicode="&#x41b;" horiz-adv-x="2617" 
d="M1278 2032l-12 102l-13 -102l-639 -2032h-589l1069 2875h417l1082 -2875h-631z" />
    <glyph glyph-name="c204" unicode="&#xcc;" horiz-adv-x="3502" 
d="M266 0v2875h725l742 -2105l28 -172l33 172l750 2105h725v-2875h-533v2154l-745 -2154h-451l-741 2154v-2154h-533z" />
    <glyph glyph-name="c204" unicode="&#x41c;" horiz-adv-x="3502" 
d="M266 0v2875h725l742 -2105l28 -172l33 172l750 2105h725v-2875h-533v2154l-745 -2154h-451l-741 2154v-2154h-533z" />
    <glyph glyph-name="c205" unicode="&#xcd;" horiz-adv-x="2646" 
d="M266 0v2875h533v-1151h1024v1151h536v-2875h-536v1204h-1024v-1204h-533z" />
    <glyph glyph-name="c205" unicode="&#x41d;" horiz-adv-x="2646" 
d="M266 0v2875h533v-1151h1024v1151h536v-2875h-536v1204h-1024v-1204h-533z" />
    <glyph glyph-name="c206" unicode="&#xce;" horiz-adv-x="3269" 
d="M1589 2929q420 0 770.5 -199.5t552 -545.5t201.5 -759q0 -405 -201 -749.5t-547.5 -545t-750.5 -200.5q-405 0 -750.5 200.5t-547 545t-201.5 749.5q0 402 200 749t539.5 551t734.5 204zM1634 2413q-272 0 -497.5 -128.5t-355.5 -352.5t-130 -494q0 -265 131 -494
t353.5 -363.5t478.5 -134.5q257 0 479.5 135t354.5 364.5t132 492.5q0 259 -129 483.5t-348 358t-469 133.5z" />
    <glyph glyph-name="c206" unicode="&#x41e;" horiz-adv-x="3269" 
d="M1589 2929q420 0 770.5 -199.5t552 -545.5t201.5 -759q0 -405 -201 -749.5t-547.5 -545t-750.5 -200.5q-405 0 -750.5 200.5t-547 545t-201.5 749.5q0 402 200 749t539.5 551t734.5 204zM1634 2413q-272 0 -497.5 -128.5t-355.5 -352.5t-130 -494q0 -265 131 -494
t353.5 -363.5t478.5 -134.5q257 0 479.5 135t354.5 364.5t132 492.5q0 259 -129 483.5t-348 358t-469 133.5z" />
    <glyph glyph-name="c207" unicode="&#xcf;" horiz-adv-x="2646" 
d="M266 0v2875h2093v-2875h-536v2359h-1024v-2359h-533z" />
    <glyph glyph-name="c207" unicode="&#x41f;" horiz-adv-x="2646" 
d="M266 0v2875h2093v-2875h-536v2359h-1024v-2359h-533z" />
    <glyph glyph-name="c208" unicode="&#xd0;" 
d="M799 0h-533v2875h676q281 0 418 -16q190 -20 360 -135q178 -120 279.5 -314t101.5 -415q0 -217 -92 -411.5t-252 -317.5q-84 -68 -205 -115q-173 -61 -651 -61h-102v-1090zM799 1606h94h57h49q215 0 308 32q119 37 190.5 133.5t71.5 219.5q0 125 -75.5 217.5
t-203.5 126.5q-103 24 -291 24h-45h-61h-94v-753z" />
    <glyph glyph-name="c208" unicode="&#x420;" 
d="M799 0h-533v2875h676q281 0 418 -16q190 -20 360 -135q178 -120 279.5 -314t101.5 -415q0 -217 -92 -411.5t-252 -317.5q-84 -68 -205 -115q-173 -61 -651 -61h-102v-1090zM799 1606h94h57h49q215 0 308 32q119 37 190.5 133.5t71.5 219.5q0 125 -75.5 217.5
t-203.5 126.5q-103 24 -291 24h-45h-61h-94v-753z" />
    <glyph glyph-name="c209" unicode="&#xd1;" horiz-adv-x="3035" 
d="M2322 782h619q-79 -161 -135 -244t-148 -178q-141 -136 -311 -232.5t-359 -147t-382 -50.5q-399 0 -743.5 204t-546 551.5t-201.5 752.5q0 401 200.5 745t542.5 545t739 201q299 0 579.5 -116.5t489.5 -326.5q89 -85 148.5 -174t142.5 -256h-606q-95 102 -166 156.5
t-170 101.5q-208 99 -418 99q-253 0 -471.5 -134t-346.5 -359.5t-128 -489.5q0 -262 130.5 -488.5t350 -361t470.5 -134.5q182 0 356 74q107 47 181.5 100.5t182.5 161.5z" />
    <glyph glyph-name="c209" unicode="&#x421;" horiz-adv-x="3035" 
d="M2322 782h619q-79 -161 -135 -244t-148 -178q-141 -136 -311 -232.5t-359 -147t-382 -50.5q-399 0 -743.5 204t-546 551.5t-201.5 752.5q0 401 200.5 745t542.5 545t739 201q299 0 579.5 -116.5t489.5 -326.5q89 -85 148.5 -174t142.5 -256h-606q-95 102 -166 156.5
t-170 101.5q-208 99 -418 99q-253 0 -471.5 -134t-346.5 -359.5t-128 -489.5q0 -262 130.5 -488.5t350 -361t470.5 -134.5q182 0 356 74q107 47 181.5 100.5t182.5 161.5z" />
    <glyph glyph-name="c210" unicode="&#xd2;" horiz-adv-x="1655" 
d="M557 0v2359h-528v516h1597v-516h-536v-2359h-533z" />
    <glyph glyph-name="c210" unicode="&#x422;" horiz-adv-x="1655" 
d="M557 0v2359h-528v516h1597v-516h-536v-2359h-533z" />
    <glyph glyph-name="c211" unicode="&#xd3;" horiz-adv-x="2413" 
d="M434 0l488 954l-910 1921h586l606 -1413l647 1413h586l-1417 -2875h-586z" />
    <glyph glyph-name="c211" unicode="&#x423;" horiz-adv-x="2413" 
d="M434 0l488 954l-910 1921h586l606 -1413l647 1413h586l-1417 -2875h-586z" />
    <glyph glyph-name="c212" unicode="&#xd4;" horiz-adv-x="3727" 
d="M1614 3113h463v-291h65q310 -13 571.5 -121t452 -295.5t294 -438t104.5 -542.5q0 -296 -104.5 -541.5t-301 -426t-471.5 -283t-614 -117.5v-315h-467v315q-340 17 -611.5 119t-465 281t-296 426.5t-102.5 541.5q0 221 62.5 423.5t181 370t289 296.5t385.5 209
q130 51 240 70t325 28v291zM1614 487v1885q-227 -25 -365 -82q-263 -108 -424 -342t-161 -510q0 -247 122 -456.5t337.5 -339.5t490.5 -155zM2077 487q264 18 482 149.5t343 343t125 458.5q0 373 -270 643q-126 126 -256 185t-375 97l-49 9v-1885z" />
    <glyph glyph-name="c212" unicode="&#x424;" horiz-adv-x="3727" 
d="M1614 3113h463v-291h65q310 -13 571.5 -121t452 -295.5t294 -438t104.5 -542.5q0 -296 -104.5 -541.5t-301 -426t-471.5 -283t-614 -117.5v-315h-467v315q-340 17 -611.5 119t-465 281t-296 426.5t-102.5 541.5q0 221 62.5 423.5t181 370t289 296.5t385.5 209
q130 51 240 70t325 28v291zM1614 487v1885q-227 -25 -365 -82q-263 -108 -424 -342t-161 -510q0 -247 122 -456.5t337.5 -339.5t490.5 -155zM2077 487q264 18 482 149.5t343 343t125 458.5q0 373 -270 643q-126 126 -256 185t-375 97l-49 9v-1885z" />
    <glyph glyph-name="c213" unicode="&#xd5;" horiz-adv-x="2646" 
d="M20 0l992 1434l-992 1441h623l680 -987l684 987h623l-996 -1441l996 -1434h-623l-684 979l-680 -979h-623z" />
    <glyph glyph-name="c213" unicode="&#x425;" horiz-adv-x="2646" 
d="M20 0l992 1434l-992 1441h623l680 -987l684 987h623l-996 -1441l996 -1434h-623l-684 979l-680 -979h-623z" />
    <glyph glyph-name="c214" unicode="&#xd6;" horiz-adv-x="2748" 
d="M2359 2875v-2359h234v-1085h-508v569h-1819v2875h533v-2359h1024v2359h536z" />
    <glyph glyph-name="c214" unicode="&#x426;" horiz-adv-x="2748" 
d="M2359 2875v-2359h234v-1085h-508v569h-1819v2875h533v-2359h1024v2359h536z" />
    <glyph glyph-name="c215" unicode="&#xd7;" horiz-adv-x="2544" 
d="M2257 0h-533v1221l-36 -50q-85 -115 -232 -180t-326 -65q-403 0 -647 282q-115 146 -166 345t-51 495v827h533v-827q0 -179 9 -247t44 -142q123 -246 418 -246q118 0 217.5 54t159.5 151q46 73 61.5 160.5t15.5 269.5v827h533v-2875z" />
    <glyph glyph-name="c215" unicode="&#x427;" horiz-adv-x="2544" 
d="M2257 0h-533v1221l-36 -50q-85 -115 -232 -180t-326 -65q-403 0 -647 282q-115 146 -166 345t-51 495v827h533v-827q0 -179 9 -247t44 -142q123 -246 418 -246q118 0 217.5 54t159.5 151q46 73 61.5 160.5t15.5 269.5v827h533v-2875z" />
    <glyph glyph-name="c216" unicode="&#xd8;" horiz-adv-x="3682" 
d="M3420 0h-3154v2875h533v-2359h778v2359h532v-2359h779v2359h532v-2875z" />
    <glyph glyph-name="c216" unicode="&#x428;" horiz-adv-x="3682" 
d="M3420 0h-3154v2875h533v-2359h778v2359h532v-2359h779v2359h532v-2875z" />
    <glyph glyph-name="c217" unicode="&#xd9;" horiz-adv-x="3813" 
d="M799 516h778v2359h532v-2359h779v2359h532v-2359h234v-1085h-508v569h-2880v2875h533v-2359z" />
    <glyph glyph-name="c217" unicode="&#x429;" horiz-adv-x="3813" 
d="M799 516h778v2359h532v-2359h779v2359h532v-2359h234v-1085h-508v569h-2880v2875h533v-2359z" />
    <glyph glyph-name="c218" unicode="&#xda;" horiz-adv-x="2585" 
d="M590 2359h-516v516h1048v-1126h189q540 0 798 -188q164 -121 256.5 -301.5t92.5 -382.5q0 -207 -92 -387.5t-257 -296.5q-263 -193 -798 -193h-721v2359zM1122 516h226q577 0 577 381q0 153 -110 242q-78 71 -185 94q-76 20 -274 20h-234v-737z" />
    <glyph glyph-name="c218" unicode="&#x42a;" horiz-adv-x="2585" 
d="M590 2359h-516v516h1048v-1126h189q540 0 798 -188q164 -121 256.5 -301.5t92.5 -382.5q0 -207 -92 -387.5t-257 -296.5q-263 -193 -798 -193h-721v2359zM1122 516h226q577 0 577 381q0 153 -110 242q-78 71 -185 94q-76 20 -274 20h-234v-737z" />
    <glyph glyph-name="c219" unicode="&#xdb;" horiz-adv-x="3351" 
d="M799 1749h184q541 0 799 -188q166 -120 257 -300.5t91 -383.5q0 -207 -91 -387t-257 -297q-263 -193 -799 -193h-717v2875h533v-1126zM2552 0v2875h532v-2875h-532zM799 516h221q577 0 577 381q0 155 -110 242q-75 70 -180 94q-82 20 -275 20h-233v-737z" />
    <glyph glyph-name="c219" unicode="&#x42b;" horiz-adv-x="3351" 
d="M799 1749h184q541 0 799 -188q166 -120 257 -300.5t91 -383.5q0 -207 -91 -387t-257 -297q-263 -193 -799 -193h-717v2875h533v-1126zM2552 0v2875h532v-2875h-532zM799 516h221q577 0 577 381q0 155 -110 242q-75 70 -180 94q-82 20 -275 20h-233v-737z" />
    <glyph glyph-name="c220" unicode="&#xdc;" horiz-adv-x="2257" 
d="M799 1749h184q541 0 799 -188q166 -120 257 -300.5t91 -383.5q0 -207 -91 -387t-257 -297q-263 -193 -799 -193h-717v2875h533v-1126zM799 516h221q577 0 577 381q0 155 -110 242q-75 70 -180 94q-82 20 -275 20h-233v-737z" />
    <glyph glyph-name="c220" unicode="&#x42c;" horiz-adv-x="2257" 
d="M799 1749h184q541 0 799 -188q166 -120 257 -300.5t91 -383.5q0 -207 -91 -387t-257 -297q-263 -193 -799 -193h-717v2875h533v-1126zM799 516h221q577 0 577 381q0 155 -110 242q-75 70 -180 94q-82 20 -275 20h-233v-737z" />
    <glyph glyph-name="c221" unicode="&#xdd;" horiz-adv-x="3035" 
d="M2392 1696q-63 168 -115 257t-147 185q-275 275 -651 275q-215 0 -418 -99q-105 -48 -172 -100t-164 -158h-610q81 163 139.5 250t151.5 180q208 209 490.5 326t578.5 117q397 0 739 -201t542.5 -545t200.5 -745q0 -407 -201 -754t-544 -550.5t-742 -203.5
q-194 0 -383.5 50.5t-360.5 147t-308 232.5q-94 96 -149.5 177t-137.5 245h619q112 -111 183.5 -162t180.5 -100q174 -74 356 -74q210 0 392 87.5t318.5 253t211.5 393.5h-1417v516h1417z" />
    <glyph glyph-name="c221" unicode="&#x42d;" horiz-adv-x="3035" 
d="M2392 1696q-63 168 -115 257t-147 185q-275 275 -651 275q-215 0 -418 -99q-105 -48 -172 -100t-164 -158h-610q81 163 139.5 250t151.5 180q208 209 490.5 326t578.5 117q397 0 739 -201t542.5 -545t200.5 -745q0 -407 -201 -754t-544 -550.5t-742 -203.5
q-194 0 -383.5 50.5t-360.5 147t-308 232.5q-94 96 -149.5 177t-137.5 245h619q112 -111 183.5 -162t180.5 -100q174 -74 356 -74q210 0 392 87.5t318.5 253t211.5 393.5h-1417v516h1417z" />
    <glyph glyph-name="c222" unicode="&#xde;" horiz-adv-x="4272" 
d="M799 1724h352q62 341 275 616.5t527 432t664 156.5q408 0 753 -202t545.5 -548.5t200.5 -753.5q0 -405 -201.5 -749.5t-547 -545t-750.5 -200.5q-298 0 -571.5 114t-489.5 329q-118 115 -195.5 231t-128.5 253t-97 347h-336v-1204h-533v2875h533v-1151zM2638 2413
q-272 0 -497.5 -128.5t-355.5 -352.5t-130 -494q0 -265 130.5 -494t353.5 -363.5t478 -134.5q257 0 480 135t355 364.5t132 492.5q0 259 -129 483.5t-348 358t-469 133.5z" />
    <glyph glyph-name="c222" unicode="&#x42e;" horiz-adv-x="4272" 
d="M799 1724h352q62 341 275 616.5t527 432t664 156.5q408 0 753 -202t545.5 -548.5t200.5 -753.5q0 -405 -201.5 -749.5t-547 -545t-750.5 -200.5q-298 0 -571.5 114t-489.5 329q-118 115 -195.5 231t-128.5 253t-97 347h-336v-1204h-533v2875h533v-1151zM2638 2413
q-272 0 -497.5 -128.5t-355.5 -352.5t-130 -494q0 -265 130.5 -494t353.5 -363.5t478 -134.5q257 0 480 135t355 364.5t132 492.5q0 259 -129 483.5t-348 358t-469 133.5z" />
    <glyph glyph-name="c223" unicode="&#xdf;" horiz-adv-x="2281" 
d="M1995 2875v-2875h-533v1360l-803 -1360h-659l840 1315q-684 80 -684 733q0 274 127 471q85 135 225 217q102 64 188 92.5t220 37.5t403 9h676zM1462 1606v811h-155q-144 0 -189 -4q-193 -7 -307 -99q-123 -103 -123 -291q0 -190 123 -307q54 -48 139 -78q98 -32 357 -32
h155z" />
    <glyph glyph-name="c223" unicode="&#x42f;" horiz-adv-x="2281" 
d="M1995 2875v-2875h-533v1360l-803 -1360h-659l840 1315q-684 80 -684 733q0 274 127 471q85 135 225 217q102 64 188 92.5t220 37.5t403 9h676zM1462 1606v811h-155q-144 0 -189 -4q-193 -7 -307 -99q-123 -103 -123 -291q0 -190 123 -307q54 -48 139 -78q98 -32 357 -32
h155z" />
    <glyph glyph-name="c224" unicode="&#xe0;" horiz-adv-x="2535" 
d="M2359 2126v-2126h-467v287q-87 -103 -146 -151t-161 -99q-201 -107 -438 -107q-293 0 -528.5 147.5t-369.5 408t-134 583.5q0 312 140 570.5t382.5 407t533.5 148.5q235 0 410 -94q94 -47 157.5 -103t153.5 -171v299h467zM1876 1057q0 185 -77.5 331t-218 227t-318.5 81
q-181 0 -326.5 -83t-227 -229.5t-81.5 -330.5q0 -175 82 -318t226 -224t322 -81q177 0 318 81.5t221 225t80 320.5z" />
    <glyph glyph-name="c224" unicode="&#x430;" horiz-adv-x="2535" 
d="M2359 2126v-2126h-467v287q-87 -103 -146 -151t-161 -99q-201 -107 -438 -107q-293 0 -528.5 147.5t-369.5 408t-134 583.5q0 312 140 570.5t382.5 407t533.5 148.5q235 0 410 -94q94 -47 157.5 -103t153.5 -171v299h467zM1876 1057q0 185 -77.5 331t-218 227t-318.5 81
q-181 0 -326.5 -83t-227 -229.5t-81.5 -330.5q0 -175 82 -318t226 -224t322 -81q177 0 318 81.5t221 225t80 320.5z" />
    <glyph glyph-name="c225" unicode="&#xe1;" horiz-adv-x="2417" 
d="M1221 -49q-151 6 -242 24q-139 26 -293.5 117t-259.5 215q-190 215 -233 504q-10 61 -17 188q0 8 -2 139t-2 251v98q0 261 20 386t87 277q82 201 245 353q125 117 300 180.5t483 105.5q260 36 355 57t230 74v-524q-160 -56 -250.5 -77.5t-298.5 -53.5
q-263 -38 -377 -75.5t-216 -121.5q-135 -112 -207 -297.5t-72 -418.5v-49q76 322 294.5 507t524.5 185q278 0 503 -130.5t352.5 -361.5t127.5 -516q0 -416 -270 -704q-143 -156 -361 -254q-96 -40 -180.5 -56t-240.5 -22zM647 975q0 -252 154.5 -410.5t402.5 -158.5
q161 0 294 75t208.5 206.5t75.5 291.5q0 151 -75.5 279.5t-206 203t-288.5 74.5q-161 0 -290 -72.5t-202 -201t-73 -287.5z" />
    <glyph glyph-name="c225" unicode="&#x431;" horiz-adv-x="2417" 
d="M1221 -49q-151 6 -242 24q-139 26 -293.5 117t-259.5 215q-190 215 -233 504q-10 61 -17 188q0 8 -2 139t-2 251v98q0 261 20 386t87 277q82 201 245 353q125 117 300 180.5t483 105.5q260 36 355 57t230 74v-524q-160 -56 -250.5 -77.5t-298.5 -53.5
q-263 -38 -377 -75.5t-216 -121.5q-135 -112 -207 -297.5t-72 -418.5v-49q76 322 294.5 507t524.5 185q278 0 503 -130.5t352.5 -361.5t127.5 -516q0 -416 -270 -704q-143 -156 -361 -254q-96 -40 -180.5 -56t-240.5 -22zM647 975q0 -252 154.5 -410.5t402.5 -158.5
q161 0 294 75t208.5 206.5t75.5 291.5q0 151 -75.5 279.5t-206 203t-288.5 74.5q-161 0 -290 -72.5t-202 -201t-73 -287.5z" />
    <glyph glyph-name="c226" unicode="&#xe2;" horiz-adv-x="2011" 
d="M209 0v2126h573q361 0 443 -8q137 -17 250 -70q135 -71 217 -204.5t82 -282.5q0 -213 -127 -328q-47 -47 -164 -90q98 -20 151 -41q122 -50 194.5 -176t72.5 -283q0 -311 -259 -504q-200 -139 -589 -139h-844zM705 455h278h143q16 0 74 8q95 18 150 78.5t55 150.5
q0 72 -49.5 135t-128.5 87t-236 24h-286v-483zM705 1286h344q95 0 156 53t61 140q0 72 -41 131q-26 25 -78 45q-31 13 -90 20h-283h-69v-389z" />
    <glyph glyph-name="c226" unicode="&#x432;" horiz-adv-x="2011" 
d="M209 0v2126h573q361 0 443 -8q137 -17 250 -70q135 -71 217 -204.5t82 -282.5q0 -213 -127 -328q-47 -47 -164 -90q98 -20 151 -41q122 -50 194.5 -176t72.5 -283q0 -311 -259 -504q-200 -139 -589 -139h-844zM705 455h278h143q16 0 74 8q95 18 150 78.5t55 150.5
q0 72 -49.5 135t-128.5 87t-236 24h-286v-483zM705 1286h344q95 0 156 53t61 140q0 72 -41 131q-26 25 -78 45q-31 13 -90 20h-283h-69v-389z" />
    <glyph glyph-name="c227" unicode="&#xe3;" horiz-adv-x="1577" 
d="M1499 2126v-451h-782v-1675h-508v2126h1290z" />
    <glyph glyph-name="c227" unicode="&#x433;" horiz-adv-x="1577" 
d="M1499 2126v-451h-782v-1675h-508v2126h1290z" />
    <glyph glyph-name="c228" unicode="&#xe4;" horiz-adv-x="2351" 
d="M598 0v-492h-483v947h159l701 1671h401l701 -1671h159v-947h-483v492h-1155zM782 455h783l-394 999z" />
    <glyph glyph-name="c228" unicode="&#x434;" horiz-adv-x="2351" 
d="M598 0v-492h-483v947h159l701 1671h401l701 -1671h159v-947h-483v492h-1155zM782 455h783l-394 999z" />
    <glyph glyph-name="c229" unicode="&#xe5;" horiz-adv-x="2458" 
d="M2306 836h-1651q53 -138 119 -209q173 -197 451 -197q159 0 295 62q91 42 172 122h565q-83 -200 -189 -311q-164 -176 -385.5 -274.5t-453.5 -98.5q-300 0 -557 151t-407 410t-150 562q0 309 151 572t409 416.5t562 153.5q293 0 545.5 -150.5t402.5 -405.5t150 -549
q0 -58 -21 -205zM647 1290h1172q-50 136 -123 209q-178 197 -455 197q-291 0 -483 -217q-69 -76 -111 -189z" />
    <glyph glyph-name="c229" unicode="&#x435;" horiz-adv-x="2458" 
d="M2306 836h-1651q53 -138 119 -209q173 -197 451 -197q159 0 295 62q91 42 172 122h565q-83 -200 -189 -311q-164 -176 -385.5 -274.5t-453.5 -98.5q-300 0 -557 151t-407 410t-150 562q0 309 151 572t409 416.5t562 153.5q293 0 545.5 -150.5t402.5 -405.5t150 -549
q0 -58 -21 -205zM647 1290h1172q-50 136 -123 209q-178 197 -455 197q-291 0 -483 -217q-69 -76 -111 -189z" />
    <glyph glyph-name="c230" unicode="&#xe6;" horiz-adv-x="3375" 
d="M1458 1077l-680 -1077h-684l873 1171l-746 955h606l631 -918v918h459v-918l631 918h602l-742 -955l869 -1171h-684l-676 1077v-1077h-459v1077z" />
    <glyph glyph-name="c230" unicode="&#x436;" horiz-adv-x="3375" 
d="M1458 1077l-680 -1077h-684l873 1171l-746 955h606l631 -918v918h459v-918l631 918h602l-742 -955l869 -1171h-684l-676 1077v-1077h-459v1077z" />
    <glyph glyph-name="c231" unicode="&#xe7;" horiz-adv-x="1855" 
d="M643 705q24 -283 303 -283q129 0 212 75t83 191q0 266 -401 266q1 0 -99 -8v340q33 -4 74 -4q138 0 214.5 52.5t76.5 148.5q0 93 -69.5 151t-184.5 58q-234 0 -246 -234h-475l4 41l4 70q13 197 144 368q190 258 618 258q158 0 288 -44t223 -124.5t143.5 -195t50.5 -250.5
q0 -162 -77 -264.5t-247 -161.5q467 -114 467 -545q0 -205 -99.5 -359.5t-282.5 -239.5t-421 -85q-237 0 -425.5 95.5t-295 266t-106.5 384.5v33h524z" />
    <glyph glyph-name="c231" unicode="&#x437;" horiz-adv-x="1855" 
d="M643 705q24 -283 303 -283q129 0 212 75t83 191q0 266 -401 266q1 0 -99 -8v340q33 -4 74 -4q138 0 214.5 52.5t76.5 148.5q0 93 -69.5 151t-184.5 58q-234 0 -246 -234h-475l4 41l4 70q13 197 144 368q190 258 618 258q158 0 288 -44t223 -124.5t143.5 -195t50.5 -250.5
q0 -162 -77 -264.5t-247 -161.5q467 -114 467 -545q0 -205 -99.5 -359.5t-282.5 -239.5t-421 -85q-237 0 -425.5 95.5t-295 266t-106.5 384.5v33h524z" />
    <glyph glyph-name="c232" unicode="&#xe8;" horiz-adv-x="2347" 
d="M1630 2126h512v-2126h-512v1454l-913 -1454h-508v2126h508v-1450z" />
    <glyph glyph-name="c232" unicode="&#x438;" horiz-adv-x="2347" 
d="M1630 2126h512v-2126h-512v1454l-913 -1454h-508v2126h508v-1450z" />
    <glyph glyph-name="c233" unicode="&#xe9;" horiz-adv-x="2347" 
d="M1630 2126h512v-2126h-512v1454l-913 -1454h-508v2126h508v-1450zM516 2916h385q69 -168 254 -168q181 0 262 168h385q-91 -528 -643 -528q-557 0 -643 528z" />
    <glyph glyph-name="c233" unicode="&#x439;" horiz-adv-x="2347" 
d="M1630 2126h512v-2126h-512v1454l-913 -1454h-508v2126h508v-1450zM516 2916h385q69 -168 254 -168q181 0 262 168h385q-91 -528 -643 -528q-557 0 -643 528z" />
    <glyph glyph-name="c234" unicode="&#xea;" horiz-adv-x="2228" 
d="M209 0v2126h508v-1000l684 1000h602l-766 -1041l893 -1085h-684l-729 995v-995h-508z" />
    <glyph glyph-name="c234" unicode="&#x43a;" horiz-adv-x="2228" 
d="M209 0v2126h508v-1000l684 1000h602l-766 -1041l893 -1085h-684l-729 995v-995h-508z" />
    <glyph glyph-name="c235" unicode="&#xeb;" horiz-adv-x="2150" 
d="M1278 2126l860 -2126h-569l-496 1397l-487 -1397h-570l861 2126h401z" />
    <glyph glyph-name="c235" unicode="&#x43b;" horiz-adv-x="2150" 
d="M1278 2126l860 -2126h-569l-496 1397l-487 -1397h-570l861 2126h401z" />
    <glyph glyph-name="c236" unicode="&#xec;" horiz-adv-x="2822" 
d="M197 0v2126h856l368 -1340h29l414 1340h766v-2126h-512v1626h-37l-504 -1626h-332l-504 1626h-36v-1626h-508z" />
    <glyph glyph-name="c236" unicode="&#x43c;" horiz-adv-x="2822" 
d="M197 0v2126h856l368 -1340h29l414 1340h766v-2126h-512v1626h-37l-504 -1626h-332l-504 1626h-36v-1626h-508z" />
    <glyph glyph-name="c237" unicode="&#xed;" horiz-adv-x="2347" 
d="M1630 1323v803h512v-2126h-512v868h-913v-868h-508v2126h508v-803h913z" />
    <glyph glyph-name="c237" unicode="&#x43d;" horiz-adv-x="2347" 
d="M1630 1323v803h512v-2126h-512v868h-913v-868h-508v2126h508v-803h913z" />
    <glyph glyph-name="c238" unicode="&#xee;" horiz-adv-x="2482" 
d="M1241 2195q313 0 574 -150t411 -411t150 -573q0 -307 -151.5 -567.5t-412 -412t-567.5 -151.5q-305 0 -565 152.5t-412.5 414t-152.5 568.5q0 304 152.5 563.5t412.5 413t561 153.5zM1241 1696q-171 -6 -312 -91.5t-221.5 -227.5t-80.5 -312q0 -269 179 -452t439 -183
q173 0 316 82t225 226.5t82 318.5q0 171 -84 318t-224.5 234t-302.5 87h-16z" />
    <glyph glyph-name="c238" unicode="&#x43e;" horiz-adv-x="2482" 
d="M1241 2195q313 0 574 -150t411 -411t150 -573q0 -307 -151.5 -567.5t-412 -412t-567.5 -151.5q-305 0 -565 152.5t-412.5 414t-152.5 568.5q0 304 152.5 563.5t412.5 413t561 153.5zM1241 1696q-171 -6 -312 -91.5t-221.5 -227.5t-80.5 -312q0 -269 179 -452t439 -183
q173 0 316 82t225 226.5t82 318.5q0 171 -84 318t-224.5 234t-302.5 87h-16z" />
    <glyph glyph-name="c239" unicode="&#xef;" horiz-adv-x="2347" 
d="M717 1675v-1675h-508v2126h1933v-2126h-512v1675h-913z" />
    <glyph glyph-name="c239" unicode="&#x43f;" horiz-adv-x="2347" 
d="M717 1675v-1675h-508v2126h1933v-2126h-512v1675h-913z" />
    <glyph glyph-name="c240" unicode="&#xf0;" horiz-adv-x="2535" 
d="M209 -713v2839h467v-275q81 105 139 156.5t143 93.5q175 94 414 94q221 0 415.5 -85.5t340 -240.5t225.5 -360t80 -440q0 -315 -141.5 -576.5t-387 -412t-540.5 -150.5q-207 0 -369 74q-130 60 -278 225v-942h-508zM1323 1696q-179 0 -324.5 -82.5t-228 -229
t-82.5 -327.5q0 -173 80.5 -317t220 -227t309.5 -83q173 0 317.5 84.5t227 230t82.5 320.5q0 169 -82 314.5t-221 231t-299 85.5z" />
    <glyph glyph-name="c240" unicode="&#x440;" horiz-adv-x="2535" 
d="M209 -713v2839h467v-275q81 105 139 156.5t143 93.5q175 94 414 94q221 0 415.5 -85.5t340 -240.5t225.5 -360t80 -440q0 -315 -141.5 -576.5t-387 -412t-540.5 -150.5q-207 0 -369 74q-130 60 -278 225v-942h-508zM1323 1696q-179 0 -324.5 -82.5t-228 -229
t-82.5 -327.5q0 -173 80.5 -317t220 -227t309.5 -83q173 0 317.5 84.5t227 230t82.5 320.5q0 169 -82 314.5t-221 231t-299 85.5z" />
    <glyph glyph-name="c241" unicode="&#xf1;" horiz-adv-x="2458" 
d="M1733 692h573q-54 -143 -95.5 -218.5t-113.5 -158.5q-164 -185 -384.5 -285t-459.5 -100q-309 0 -571 152.5t-414.5 415.5t-152.5 571q0 307 151 566.5t411 409.5t564 150q164 0 320.5 -47t295.5 -135.5t248 -214.5q72 -83 114 -162t87 -215h-573q-93 147 -206.5 211
t-281.5 64q-181 0 -321 -79.5t-218.5 -222.5t-78.5 -325q0 -275 178.5 -457t447.5 -182q301 0 480 262z" />
    <glyph glyph-name="c241" unicode="&#x441;" horiz-adv-x="2458" 
d="M1733 692h573q-54 -143 -95.5 -218.5t-113.5 -158.5q-164 -185 -384.5 -285t-459.5 -100q-309 0 -571 152.5t-414.5 415.5t-152.5 571q0 307 151 566.5t411 409.5t564 150q164 0 320.5 -47t295.5 -135.5t248 -214.5q72 -83 114 -162t87 -215h-573q-93 147 -206.5 211
t-281.5 64q-181 0 -321 -79.5t-218.5 -222.5t-78.5 -325q0 -275 178.5 -457t447.5 -182q301 0 480 262z" />
    <glyph glyph-name="c242" unicode="&#xf2;" horiz-adv-x="1712" 
d="M602 1675h-549v451h1610v-451h-553v-1675h-508v1675z" />
    <glyph glyph-name="c242" unicode="&#x442;" horiz-adv-x="1712" 
d="M602 1675h-549v451h1610v-451h-553v-1675h-508v1675z" />
    <glyph glyph-name="c243" unicode="&#xf3;" horiz-adv-x="2228" 
d="M410 -713l393 914l-778 1925h577l488 -1360l512 1360h577l-1221 -2839h-548z" />
    <glyph glyph-name="c243" unicode="&#x443;" horiz-adv-x="2228" 
d="M410 -713l393 914l-778 1925h577l488 -1360l512 1360h577l-1221 -2839h-548z" />
    <glyph glyph-name="c244" unicode="&#xf4;" horiz-adv-x="2941" 
d="M1704 2875v-696h20q307 0 561.5 -147.5t399.5 -404.5t145 -566q0 -223 -87 -433t-244 -366q-154 -148 -342.5 -222t-452.5 -89v-696h-463v696q-159 9 -240.5 24t-181.5 54q-318 117 -511 401t-193 631q0 309 145 566t398.5 404.5t558.5 147.5h24v696h463zM1241 430v1266
q-278 -24 -446 -197.5t-168 -433.5q0 -269 184 -459q88 -87 177 -123t253 -53zM1704 430q142 13 233 45q169 64 275 229t106 361q0 171 -76.5 308t-216 222t-321.5 101v-1266z" />
    <glyph glyph-name="c244" unicode="&#x444;" horiz-adv-x="2941" 
d="M1704 2875v-696h20q307 0 561.5 -147.5t399.5 -404.5t145 -566q0 -223 -87 -433t-244 -366q-154 -148 -342.5 -222t-452.5 -89v-696h-463v696q-159 9 -240.5 24t-181.5 54q-318 117 -511 401t-193 631q0 309 145 566t398.5 404.5t558.5 147.5h24v696h463zM1241 430v1266
q-278 -24 -446 -197.5t-168 -433.5q0 -269 184 -459q88 -87 177 -123t253 -53zM1704 430q142 13 233 45q169 64 275 229t106 361q0 171 -76.5 308t-216 222t-321.5 101v-1266z" />
    <glyph glyph-name="c245" unicode="&#xf5;" horiz-adv-x="2150" 
d="M4 0l758 1098l-664 1028h594l373 -582l360 582h594l-655 -1028l758 -1098h-627l-430 688l-430 -688h-631z" />
    <glyph glyph-name="c245" unicode="&#x445;" horiz-adv-x="2150" 
d="M4 0l758 1098l-664 1028h594l373 -582l360 582h594l-655 -1028l758 -1098h-627l-430 688l-430 -688h-631z" />
    <glyph glyph-name="c246" unicode="&#xf6;" horiz-adv-x="2478" 
d="M1921 0h-1712v2126h508v-1671h913v1671h512v-1610h209v-1008h-430v492z" />
    <glyph glyph-name="c246" unicode="&#x446;" horiz-adv-x="2478" 
d="M1921 0h-1712v2126h508v-1671h913v1671h512v-1610h209v-1008h-430v492z" />
    <glyph glyph-name="c247" unicode="&#xf7;" horiz-adv-x="2277" 
d="M1565 2126h508v-2126h-508v877q-56 -97 -140.5 -163.5t-195 -101t-234.5 -34.5q-187 0 -351.5 78t-266.5 212q-91 120 -129.5 280.5t-38.5 424.5v553h508v-393v-234q0 -184 113 -303t288 -119q230 0 338.5 158.5t108.5 497.5v393z" />
    <glyph glyph-name="c247" unicode="&#x447;" horiz-adv-x="2277" 
d="M1565 2126h508v-2126h-508v877q-56 -97 -140.5 -163.5t-195 -101t-234.5 -34.5q-187 0 -351.5 78t-266.5 212q-91 120 -129.5 280.5t-38.5 424.5v553h508v-393v-234q0 -184 113 -303t288 -119q230 0 338.5 158.5t108.5 497.5v393z" />
    <glyph glyph-name="c248" unicode="&#xf8;" horiz-adv-x="3207" 
d="M3002 0h-2793v2126h508v-1671h631v1671h512v-1671h630v1671h512v-2126z" />
    <glyph glyph-name="c248" unicode="&#x448;" horiz-adv-x="3207" 
d="M3002 0h-2793v2126h508v-1671h631v1671h512v-1671h630v1671h512v-2126z" />
    <glyph glyph-name="c249" unicode="&#xf9;" horiz-adv-x="3338" 
d="M717 455h631v1671h512v-1671h630v1671h512v-1610h209v-1008h-430v492h-2572v2126h508v-1671z" />
    <glyph glyph-name="c249" unicode="&#x449;" horiz-adv-x="3338" 
d="M717 455h631v1671h512v-1671h630v1671h512v-1610h209v-1008h-430v492h-2572v2126h508v-1671z" />
    <glyph glyph-name="c250" unicode="&#xfa;" horiz-adv-x="2167" 
d="M389 0v1675h-311v451h807v-721h299q392 0 590 -143q262 -187 262 -557q0 -373 -262 -566q-201 -139 -590 -139h-795zM885 455h229h143q76 0 156 41q115 59 115 200q0 74 -41 144q-42 62 -120 84t-245 22h-237v-491z" />
    <glyph glyph-name="c250" unicode="&#x44a;" horiz-adv-x="2167" 
d="M389 0v1675h-311v451h807v-721h299q392 0 590 -143q262 -187 262 -557q0 -373 -262 -566q-201 -139 -590 -139h-795zM885 455h229h143q76 0 156 41q115 59 115 200q0 74 -41 144q-42 62 -120 84t-245 22h-237v-491z" />
    <glyph glyph-name="c251" unicode="&#xfb;" horiz-adv-x="2826" 
d="M705 1405h294q393 0 590 -143q262 -187 262 -557q0 -373 -262 -566q-200 -139 -590 -139h-790v2126h496v-721zM2114 0v2126h512v-2126h-512zM705 455h225h143q80 0 160 41q110 57 110 200q0 85 -40 144q-41 62 -118.5 84t-246.5 22h-233v-491z" />
    <glyph glyph-name="c251" unicode="&#x44b;" horiz-adv-x="2826" 
d="M705 1405h294q393 0 590 -143q262 -187 262 -557q0 -373 -262 -566q-200 -139 -590 -139h-790v2126h496v-721zM2114 0v2126h512v-2126h-512zM705 455h225h143q80 0 160 41q110 57 110 200q0 85 -40 144q-41 62 -118.5 84t-246.5 22h-233v-491z" />
    <glyph glyph-name="c252" unicode="&#xfc;" horiz-adv-x="1982" 
d="M705 1405h294q393 0 590 -143q262 -187 262 -557q0 -373 -262 -566q-200 -139 -590 -139h-790v2126h496v-721zM705 455h225h143q80 0 160 41q110 57 110 200q0 85 -40 144q-41 62 -118.5 84t-246.5 22h-233v-491z" />
    <glyph glyph-name="c252" unicode="&#x44c;" horiz-adv-x="1982" 
d="M705 1405h294q393 0 590 -143q262 -187 262 -557q0 -373 -262 -566q-200 -139 -590 -139h-790v2126h496v-721zM705 455h225h143q80 0 160 41q110 57 110 200q0 85 -40 144q-41 62 -118.5 84t-246.5 22h-233v-491z" />
    <glyph glyph-name="c253" unicode="&#xfd;" horiz-adv-x="2458" 
d="M692 1421h-577q49 144 88.5 218.5t111.5 158.5q110 126 248.5 214.5t296 135.5t320.5 47q306 0 564.5 -151t410 -410t151.5 -561q0 -310 -152 -574t-414.5 -416.5t-572.5 -152.5q-237 0 -455.5 100t-383.5 285q-74 82 -115 154.5t-98 222.5h577q179 -262 475 -262
q213 0 389 126t197 292h-1044v450h1044q-18 108 -102 199t-210.5 145t-260.5 54q-211 0 -357 -115q-67 -56 -131 -160z" />
    <glyph glyph-name="c253" unicode="&#x44d;" horiz-adv-x="2458" 
d="M692 1421h-577q49 144 88.5 218.5t111.5 158.5q110 126 248.5 214.5t296 135.5t320.5 47q306 0 564.5 -151t410 -410t151.5 -561q0 -310 -152 -574t-414.5 -416.5t-572.5 -152.5q-237 0 -455.5 100t-383.5 285q-74 82 -115 154.5t-98 222.5h577q179 -262 475 -262
q213 0 389 126t197 292h-1044v450h1044q-18 108 -102 199t-210.5 145t-260.5 54q-211 0 -357 -115q-67 -56 -131 -160z" />
    <glyph glyph-name="c254" unicode="&#xfe;" horiz-adv-x="3363" 
d="M999 868h-282v-868h-508v2126h508v-803h299q46 240 209.5 440.5t403 316t501.5 115.5q304 0 561 -151.5t407 -412.5t150 -570q0 -308 -152 -568t-413.5 -411.5t-568.5 -151.5q-268 0 -508.5 123.5t-402 338.5t-204.5 476zM2109 1696q-171 -6 -312 -91.5t-221.5 -227.5
t-80.5 -312q0 -269 179 -452t440 -183q174 0 317 82t224 225.5t81 319.5q0 170 -83 317.5t-223 234.5t-304 87h-17z" />
    <glyph glyph-name="c254" unicode="&#x44e;" horiz-adv-x="3363" 
d="M999 868h-282v-868h-508v2126h508v-803h299q46 240 209.5 440.5t403 316t501.5 115.5q304 0 561 -151.5t407 -412.5t150 -570q0 -308 -152 -568t-413.5 -411.5t-568.5 -151.5q-268 0 -508.5 123.5t-402 338.5t-204.5 476zM2109 1696q-171 -6 -312 -91.5t-221.5 -227.5
t-80.5 -312q0 -269 179 -452t440 -183q174 0 317 82t224 225.5t81 319.5q0 170 -83 317.5t-223 234.5t-304 87h-17z" />
    <glyph glyph-name="c255" unicode="&#xff;" horiz-adv-x="1982" 
d="M1769 0h-503v922l-611 -922h-565l680 930q-143 14 -242 49q-158 58 -255 203t-97 325q0 269 197 447q108 96 261.5 134t434.5 38h700v-2126zM1266 1184v540h-189q-195 0 -295 -61q-110 -76 -110 -213q0 -266 409 -266h185z" />
    <glyph glyph-name="c255" unicode="&#x44f;" horiz-adv-x="1982" 
d="M1769 0h-503v922l-611 -922h-565l680 930q-143 14 -242 49q-158 58 -255 203t-97 325q0 269 197 447q108 96 261.5 134t434.5 38h700v-2126zM1266 1184v540h-189q-195 0 -295 -61q-110 -76 -110 -213q0 -266 409 -266h185z" />
    <glyph glyph-name="c145" unicode="&#x2018;" horiz-adv-x="1090" 
d="M934 1843h-516l-205 1073h520z" />
    <glyph glyph-name="c146" unicode="&#x2019;" horiz-adv-x="1090" 
d="M143 1843l201 1073h520l-205 -1073h-516z" />
    <glyph glyph-name="c147" unicode="&#x201c;" horiz-adv-x="1868" 
d="M70 -537l200 1078h521l-205 -1078h-516zM872 -537l205 1078h516l-200 -1078h-521z" />
    <glyph glyph-name="c148" unicode="&#x201d;" horiz-adv-x="1868" 
d="M135 1843l205 1073h516l-205 -1073h-516zM938 1843l205 1073h516l-201 -1073h-520z" />
    <glyph glyph-name="c149" unicode="&#x2022;" horiz-adv-x="2335" 
d="M1831 1249q0 -183 -87.5 -336t-238.5 -242t-329 -89q-177 0 -328.5 88t-239.5 239t-88 328q0 179 87 329.5t238.5 238t330.5 87.5q173 0 324.5 -87.5t241 -236.5t89.5 -319z" />
  </font>
</defs>
</svg>
